<?xml version="1.0" encoding="UTF-8" standalone="no"?>
<!-- Created with Inkscape (http://www.inkscape.org/) -->

<svg
   width="1500"
   height="1000"
   viewBox="0 0 396.875 264.58333"
   version="1.1"
   id="svg5"
   xml:space="preserve"
   inkscape:version="1.2.1 (9c6d41e410, 2022-07-14)"
   sodipodi:docname="Arena_Forest.svg"
   xmlns:inkscape="http://www.inkscape.org/namespaces/inkscape"
   xmlns:sodipodi="http://sodipodi.sourceforge.net/DTD/sodipodi-0.dtd"
   xmlns:xlink="http://www.w3.org/1999/xlink"
   xmlns="http://www.w3.org/2000/svg"
   xmlns:svg="http://www.w3.org/2000/svg"><sodipodi:namedview
     id="namedview7"
     pagecolor="#ffffff"
     bordercolor="#000000"
     borderopacity="0.25"
     inkscape:showpageshadow="2"
     inkscape:pageopacity="0.0"
     inkscape:pagecheckerboard="0"
     inkscape:deskcolor="#d1d1d1"
     inkscape:document-units="px"
     showgrid="false"
     inkscape:zoom="0.73851712"
     inkscape:cx="759.63033"
     inkscape:cy="494.23363"
     inkscape:window-width="1920"
     inkscape:window-height="1009"
     inkscape:window-x="-8"
     inkscape:window-y="-8"
     inkscape:window-maximized="1"
     inkscape:current-layer="layer1" /><defs
     id="defs2"><linearGradient
       inkscape:collect="always"
       id="linearGradient27110"><stop
         style="stop-color:#756e2f;stop-opacity:1;"
         offset="0"
         id="stop27106" /><stop
         style="stop-color:#756e2f;stop-opacity:0;"
         offset="1"
         id="stop27108" /></linearGradient><linearGradient
       inkscape:collect="always"
       id="linearGradient9068"><stop
         style="stop-color:#af5c28;stop-opacity:1;"
         offset="0"
         id="stop9064" /><stop
         style="stop-color:#683718;stop-opacity:1;"
         offset="1"
         id="stop9066" /></linearGradient><linearGradient
       inkscape:collect="always"
       id="linearGradient9058"><stop
         style="stop-color:#643617;stop-opacity:1;"
         offset="0"
         id="stop9054" /><stop
         style="stop-color:#b45e28;stop-opacity:1;"
         offset="1"
         id="stop9056" /></linearGradient><linearGradient
       inkscape:collect="always"
       id="linearGradient9048"><stop
         style="stop-color:#683818;stop-opacity:1;"
         offset="0"
         id="stop9044" /><stop
         style="stop-color:#b35d27;stop-opacity:1;"
         offset="1"
         id="stop9046" /></linearGradient><linearGradient
       inkscape:collect="always"
       id="linearGradient7532"><stop
         style="stop-color:#663517;stop-opacity:1;"
         offset="0"
         id="stop7528" /><stop
         style="stop-color:#a85b26;stop-opacity:1;"
         offset="1"
         id="stop7530" /></linearGradient><linearGradient
       inkscape:collect="always"
       id="linearGradient6798"><stop
         style="stop-color:#94cd9a;stop-opacity:1;"
         offset="0"
         id="stop6794" /><stop
         style="stop-color:#203f23;stop-opacity:1;"
         offset="1"
         id="stop6796" /></linearGradient><inkscape:path-effect
       effect="bspline"
       id="path-effect912"
       is_visible="true"
       lpeversion="1"
       weight="33.333333"
       steps="2"
       helper_size="0"
       apply_no_weight="true"
       apply_with_weight="true"
       only_selected="false" /><linearGradient
       inkscape:collect="always"
       xlink:href="#linearGradient6798"
       id="linearGradient6800"
       x1="594"
       y1="15.936528"
       x2="595.43311"
       y2="246.48492"
       gradientUnits="userSpaceOnUse"
       gradientTransform="matrix(1,0,0,1.0689103,-397.31363,-16.627076)" /><linearGradient
       inkscape:collect="always"
       xlink:href="#linearGradient7532"
       id="linearGradient7534"
       x1="20.779251"
       y1="71.294334"
       x2="74.5187"
       y2="101.74668"
       gradientUnits="userSpaceOnUse" /><linearGradient
       inkscape:collect="always"
       xlink:href="#linearGradient9048"
       id="linearGradient9050"
       x1="154.41133"
       y1="25.974064"
       x2="208.50905"
       y2="91.536186"
       gradientUnits="userSpaceOnUse" /><linearGradient
       inkscape:collect="always"
       xlink:href="#linearGradient9058"
       id="linearGradient9060"
       x1="293.77563"
       y1="29.198431"
       x2="243.26056"
       y2="95.11882"
       gradientUnits="userSpaceOnUse" /><linearGradient
       inkscape:collect="always"
       xlink:href="#linearGradient9068"
       id="linearGradient9070"
       x1="344.29068"
       y1="111.41978"
       x2="397.67188"
       y2="30.810612"
       gradientUnits="userSpaceOnUse" /><filter
       inkscape:collect="always"
       style="color-interpolation-filters:sRGB"
       id="filter9074"
       x="-0.027964287"
       y="-0.026099999"
       width="1.0559286"
       height="1.0522"><feGaussianBlur
         inkscape:collect="always"
         stdDeviation="0.58441645"
         id="feGaussianBlur9076" /></filter><filter
       inkscape:collect="always"
       style="color-interpolation-filters:sRGB"
       id="filter9134"
       x="-0.038510889"
       y="-0.038868707"
       width="1.0770218"
       height="1.0777374"><feGaussianBlur
         inkscape:collect="always"
         stdDeviation="0.90830401"
         id="feGaussianBlur9136" /></filter><filter
       inkscape:collect="always"
       style="color-interpolation-filters:sRGB"
       id="filter9376"
       x="-0.0092506921"
       y="-0.021124344"
       width="1.0185014"
       height="1.0422487"><feGaussianBlur
         inkscape:collect="always"
         stdDeviation="0.11692495"
         id="feGaussianBlur9378" /></filter><filter
       inkscape:collect="always"
       style="color-interpolation-filters:sRGB"
       id="filter9376-7"
       x="-0.0092506921"
       y="-0.021124344"
       width="1.0185014"
       height="1.0422487"><feGaussianBlur
         inkscape:collect="always"
         stdDeviation="0.11692495"
         id="feGaussianBlur9378-9" /></filter><filter
       inkscape:collect="always"
       style="color-interpolation-filters:sRGB"
       id="filter10378"
       x="-0.026791505"
       y="-0.07850666"
       width="1.053583"
       height="1.1570133"><feGaussianBlur
         inkscape:collect="always"
         stdDeviation="0.81678046"
         id="feGaussianBlur10380" /></filter><radialGradient
       inkscape:collect="always"
       xlink:href="#linearGradient27110"
       id="radialGradient27112"
       cx="198.65682"
       cy="174.29501"
       fx="198.65682"
       fy="174.29501"
       r="198.29856"
       gradientTransform="matrix(1,0,0,0.31165627,0,119.97488)"
       gradientUnits="userSpaceOnUse" /></defs><g
     inkscape:label="Ebene 1"
     inkscape:groupmode="layer"
     id="layer1"><rect
       style="opacity:1;fill:url(#linearGradient6800);fill-opacity:1;stroke:none;stroke-width:0.920509;stroke-linecap:round;stroke-miterlimit:0;stroke-opacity:1;paint-order:stroke fill markers"
       id="rect6043"
       width="395.52234"
       height="238.9614"
       x="1.0747688"
       y="7.8817868" /><path
       style="opacity:1;fill:#c0c0c0;fill-opacity:1;stroke:none;stroke-width:0.793999;stroke-linecap:round;stroke-miterlimit:0;stroke-opacity:1;paint-order:stroke fill markers"
       d="m 0.35826297,124.67551 c 0,0 76.65404103,-32.288167 199.55246703,-31.885403 118.9161,0.389713 197.04465,33.318453 197.04465,33.318453 v 8.59831 c 0,0 -72.96559,-32.88327 -198.11944,-36.184555 C 87.894211,95.595917 0.71652592,130.40772 0.71652592,130.40772 Z"
       id="path1385"
       sodipodi:nodetypes="csccscc" /><path
       style="opacity:1;fill:#8c8c8c;fill-opacity:1;stroke:none;stroke-width:0.793999;stroke-linecap:round;stroke-miterlimit:0;stroke-opacity:1;paint-order:stroke fill markers"
       d="m 0.71652592,131.12424 c 0,0 67.65655008,-32.760272 197.40289408,-32.601925 120.2932,0.14681 198.47768,36.542825 198.47768,36.542825 l 0.35828,12.89746 c 0,0 -82.88638,-33.1845 -197.76117,-33.67671 C 99.127408,113.85713 0.71652592,147.9626 0.71652592,147.9626 Z"
       id="path1441"
       sodipodi:nodetypes="csccscc" /><path
       style="opacity:1;fill:#8c8c8c;fill-opacity:1;stroke:none;stroke-width:0.793999;stroke-linecap:round;stroke-miterlimit:0;stroke-opacity:1;paint-order:stroke fill markers"
       d="m 0.71652592,203.49336 c 0,0 72.11446908,30.41336 196.32810408,31.52715 C 312.72759,236.0578 396.5971,203.1351 396.5971,203.1351 l 0.35828,7.88178 c 0,0 -90.81806,36.05401 -200.62728,35.46804 C 75.356945,245.83939 0.71652592,213.52473 0.71652592,213.52473 Z"
       id="path2949"
       sodipodi:nodetypes="csccscc" /><path
       style="opacity:1;fill:#666666;fill-opacity:1;stroke:none;stroke-width:0.793999;stroke-linecap:round;stroke-miterlimit:0;stroke-opacity:1;paint-order:stroke fill markers"
       d="m 0.35826297,213.52473 c 0,0 23.51537303,9.96569 73.08564603,20.42099 39.706531,8.37485 121.092881,12.5392 121.092881,12.5392 0,0 86.26111,-6.44121 128.6164,-14.68878 37.83836,-7.36802 73.44391,-20.42099 73.44391,-20.42099 v 18.27141 c 0,0 -13.40269,6.81078 -61.62124,16.83836 -5.32693,1.10779 -246.462039,-0.13168 -248.276223,-0.35826 C 43.417943,240.72105 0.35826297,229.2883 0.35826297,229.2883 Z"
       id="path3742"
       sodipodi:nodetypes="cscsccsscc" /><path
       style="opacity:1;fill:url(#radialGradient27112);fill-opacity:1;stroke:none;stroke-width:0.805763;stroke-linecap:round;stroke-miterlimit:0;stroke-opacity:1;paint-order:stroke fill markers"
       d="m 0.35826297,147.91448 c 0,0 96.32364103,-35.58476 194.89504703,-35.41989 117.11029,0.19588 201.34379,34.31301 201.34379,34.31301 l 0.35828,56.81943 c 0,0 -69.53132,32.27037 -203.85164,32.46824 C 72.230701,236.27333 0.71652592,203.62703 0.71652592,203.62703 Z"
       id="path3744"
       sodipodi:nodetypes="csccscc" /><path
       style="fill:#142b16;fill-opacity:1;stroke:none;stroke-width:0.619081;stroke-linecap:round;stroke-miterlimit:0;stroke-opacity:1;paint-order:stroke fill markers"
       id="path9286-0-0"
       sodipodi:type="arc"
       sodipodi:cx="58.028828"
       sodipodi:cy="61.644821"
       sodipodi:rx="27.409769"
       sodipodi:ry="10.888928"
       sodipodi:start="0"
       sodipodi:end="6.2346028"
       sodipodi:open="true"
       sodipodi:arc-type="arc"
       d="M 85.438597,61.644821 A 27.409769,10.888928 0 0 1 58.361728,72.532946 27.409769,10.888928 0 0 1 30.627145,61.909301 27.409769,10.888928 0 0 1 57.030322,50.76312 27.409769,10.888928 0 0 1 85.406256,61.116018"
       transform="matrix(0.98070637,-0.1954866,0.16651944,0.98603817,0,0)" /><path
       style="opacity:1;fill:url(#linearGradient7534);fill-opacity:1;stroke:none;stroke-width:0.793999;stroke-linecap:round;stroke-miterlimit:0;stroke-opacity:1;paint-order:stroke fill markers"
       d="M 6.4487334,121.45114 27.586249,106.76236 41.200241,91.357055 37.975873,78.817853 44.782869,64.487334 34.393245,45.141133 20.779252,37.617611 25.794933,26.511459 41.916768,37.617611 58.396864,23.645356 67.7117,27.586249 83.833532,22.570567 97.089263,22.92883 68.069962,34.751507 l -3.940892,9.314839 2.866104,25.794932 6.806996,10.031362 -1.791314,10.389627 6.090471,5.015682 8.59831,5.732211 -32.960194,2.14957 -12.897466,7.88179 z"
       id="path5989" /><path
       style="opacity:1;fill:url(#linearGradient9050);fill-opacity:1;stroke:none;stroke-width:0.793999;stroke-linecap:round;stroke-miterlimit:0;stroke-opacity:1;paint-order:stroke fill markers"
       d="m 173.04101,92.790107 c 0,0 9.12482,-3.758869 9.6731,-7.881784 0.7558,-5.683416 -5.04846,-11.136206 -10.03136,-13.972257 -2.39613,-1.363774 -5.82748,0.617942 -8.24005,-0.716526 -5.89384,-3.260066 -9.89842,-9.784994 -12.18094,-16.121832 -1.82295,-5.060948 -0.71653,-16.121835 -0.71653,-16.121835 0,0 2.05536,11.111498 5.01568,15.76357 3.40281,5.347446 8.70737,12.128259 14.68879,10.031365 5.24372,-1.83828 2.59645,-9.10825 1.79131,-13.613992 -1.3531,-7.572289 -5.39381,-14.89792 -10.74789,-20.420991 -2.86618,-2.956649 -10.74789,-6.090469 -10.74789,-6.090469 l 32.9602,-0.716526 c 0,0 -6.91879,2.637941 -7.52353,5.732207 -0.58534,2.995005 1.96101,6.452774 4.65742,7.881786 1.69159,0.896491 4.34882,0.965141 5.73221,-0.358264 2.43005,-2.324677 1.07479,-10.031363 1.07479,-10.031363 l 5.73221,-0.716526 0.71652,10.389627 c 0,0 -4.73678,5.554603 -5.73221,8.956572 -0.67074,2.292306 -0.73484,4.892695 0,7.165261 0.81581,2.522958 3.09201,4.308559 4.65742,6.448734 2.36893,3.238714 5.45154,6.04484 7.16526,9.673098 1.68231,3.561769 0.63168,8.220392 2.86611,11.464417 4.37861,6.357024 18.98794,13.255728 18.98794,13.255728 z"
       id="path9042"
       sodipodi:nodetypes="csssscssssccssscccssssscc" /><path
       style="opacity:1;fill:url(#linearGradient9060);fill-opacity:1;stroke:none;stroke-width:0.793999;stroke-linecap:round;stroke-miterlimit:0;stroke-opacity:1;paint-order:stroke fill markers"
       d="m 250.06755,94.223159 c 0,0 6.1727,-4.510278 7.52352,-7.881784 0.93271,-2.327943 0.5636,-5.079831 0,-7.523522 -1.16428,-5.048204 -3.61942,-9.888235 -6.807,-13.972257 -2.399,-3.073666 -8.95657,-7.523522 -8.95657,-7.523522 l 4.65742,-2.50784 9.6731,9.314836 c 0,0 -0.0762,3.955379 1.07479,5.373944 1.14609,1.412489 3.27704,2.684157 5.01568,2.149578 3.38808,-1.041732 3.11521,-5.106128 2.50783,-8.598311 -0.90456,-5.200815 -8.33523,-4.844158 -9.31483,-10.031364 -0.25844,-1.368487 2.14958,-3.582627 2.14958,-3.582627 0,0 4.41145,9.647395 8.24006,8.59831 3.54807,-0.972214 3.11095,-7.118799 2.50783,-10.747888 -0.5541,-3.334119 -4.55859,-5.31829 -5.37395,-8.598313 -0.80872,-3.253296 0.71653,-10.031362 0.71653,-10.031362 h 3.22436 l -0.71652,9.314836 c 0,0 3.16411,4.127961 4.29916,6.448734 1.16142,2.374693 1.01759,5.340117 2.50783,7.523523 1.05161,1.540748 2.56457,2.896348 4.29916,3.58263 1.89104,0.74818 4.17651,1.04568 6.09047,0.358262 2.14724,-0.771202 3.91958,-2.656427 5.01568,-4.657418 1.92433,-3.512975 -0.80619,-9.119448 2.14958,-11.822679 0.97336,-0.890198 3.94089,-0.358262 3.94089,-0.358262 l -3.58262,14.330519 c 0,0 -6.27416,4.101913 -8.24005,7.165258 -1.14292,1.780954 -0.94599,4.150497 -1.79131,6.090472 -1.77534,4.074331 -5.67261,7.167305 -6.80701,11.464415 -1.55487,5.88986 0.35827,18.27141 0.35827,18.27141 z"
       id="path9052"
       sodipodi:nodetypes="cssscccsssscssscccssssssccssscc" /><path
       style="opacity:1;fill:url(#linearGradient9070);fill-opacity:1;stroke:none;stroke-width:0.793999;stroke-linecap:round;stroke-miterlimit:0;stroke-opacity:1;paint-order:stroke fill markers"
       d="m 341.4246,108.55368 c 0,0 16.67472,-8.747335 19.70447,-16.838361 1.14306,-3.052564 -2.30037,-6.531046 -1.43306,-9.6731 0.90324,-3.272211 4.94656,-4.837667 6.44874,-7.881784 1.84585,-3.74055 3.03945,-8.01335 2.8661,-12.180943 -0.20874,-5.018445 -1.50507,-10.420133 -4.65741,-14.330519 -2.08247,-2.583239 -6.03106,-2.913544 -8.59832,-5.015679 -3.33784,-2.733107 -8.5983,-9.673101 -8.5983,-9.673101 l 1.43304,-1.433052 c 0,0 10.57388,15.138252 16.83837,12.18094 1.73125,-0.81728 1.21535,-4.020323 0.35825,-5.732208 -1.85361,-3.702205 -8.12767,-3.339183 -10.38963,-6.806996 -1.58742,-2.433683 -1.43304,-8.59831 -1.43304,-8.59831 l 6.09047,0.716526 c 0,0 -0.23007,4.916478 1.07479,6.806996 2.18765,3.169542 6.21228,5.23574 10.03136,5.732208 1.83845,0.238992 3.77739,-0.490718 5.37395,-1.433052 3.56408,-2.10362 4.62136,-7.81121 8.5983,-8.956575 1.89262,-0.545078 5.73223,1.433053 5.73223,1.433053 0,0 0.21814,4.90831 -1.0748,6.806996 -2.65145,3.89365 -10.52739,2.754312 -12.18094,7.165258 -1.3256,3.53612 0.28245,8.912072 3.58262,10.747891 2.25284,1.253208 5.46516,-0.239244 7.52353,-1.791317 3.50086,-2.639753 6.44872,-11.464414 6.44872,-11.464414 l 2.14958,2.866104 c 0,0 -0.47777,7.499243 -2.14958,10.747889 -1.19845,2.328823 -3.67781,3.73649 -5.37393,5.732208 -1.26841,1.492463 -2.73727,2.890592 -3.58264,4.657418 -1.53767,3.21375 -2.91097,6.849839 -2.50783,10.389627 0.39282,3.449137 3.91271,5.924221 4.65741,9.314836 0.82019,3.734326 -1.79952,7.923126 -0.35827,11.464414 1.68739,4.14608 9.67311,9.314837 9.67311,9.314837 l -0.71651,14.33052 c 0,0 -7.98352,-1.00731 -11.8227,-2.14958 -4.71939,-1.40415 -8.69576,-5.49685 -13.61398,-5.73221 -3.99915,-0.19138 -11.46442,3.58263 -11.46442,3.58263 z"
       id="path9062"
       sodipodi:nodetypes="cssssssccsssccsssscssssccssssssccsscc" /><path
       style="opacity:1;fill:#683718;fill-opacity:1;stroke:none;stroke-width:0.793999;stroke-linecap:round;stroke-miterlimit:0;stroke-opacity:1;paint-order:stroke fill markers;filter:url(#filter9074)"
       d="m 91.715319,93.864897 c 0,0 14.579001,-5.048299 16.480101,-11.464417 0.98912,-3.338235 -2.55843,-6.477638 -3.9409,-9.673097 -1.25188,-2.893611 -2.08269,-6.051302 -3.94089,-8.598313 -2.19211,-3.004694 -8.240049,-7.523522 -8.240049,-7.523522 l 3.58263,-3.582631 c 0,0 4.106137,6.904215 6.448739,5.373947 4.68307,-3.05914 -4.657425,-16.121835 -4.657425,-16.121835 l 5.373945,-2.149578 c 0,0 0.86663,9.145139 3.58263,12.539205 1.86983,2.336643 5.86791,2.085466 7.88179,4.299156 5.50822,6.054708 4.33547,16.364958 9.6731,22.570567 4.58134,5.326336 17.91314,11.10615 17.91314,11.10615 0,0 -16.43972,-3.361802 -24.72014,-2.866102 -8.70297,0.520996 -25.436671,6.09047 -25.436671,6.09047 z"
       id="path9072"
       sodipodi:nodetypes="csssccsccssscsc" /><path
       style="opacity:1;mix-blend-mode:normal;fill:#562e14;fill-opacity:1;stroke:none;stroke-width:0.793999;stroke-linecap:round;stroke-miterlimit:0;stroke-opacity:1;paint-order:stroke fill markers;filter:url(#filter9134)"
       d="m 297,80.250903 c 0,0 11.99104,1.458193 17.55487,-0.358261 2.77148,-0.904819 4.31792,-4.389225 7.16526,-5.015683 9.24263,-2.033521 27.94452,5.015683 27.94452,5.015683 l 3.94089,-2.149579 c 0,0 -15.29309,-8.227027 -19.3462,-15.405308 -4.08573,-7.236047 -6.37233,-17.029635 -3.22437,-24.720143 2.64254,-6.455758 16.4801,-12.897467 16.4801,-12.897467 h -15.04704 c 0,0 -5.79005,4.9072 -9.31484,5.015681 -3.41808,0.105197 -9.31484,-4.299155 -9.31484,-4.299155 l -12.89746,-0.358263 c 0,0 15.96757,12.744652 16.4801,21.85404 0.17143,3.046851 -4.00543,4.90058 -4.65743,7.881784 -0.74388,3.401296 2.67966,7.299877 1.07479,10.389627 -2.14399,4.127685 -8.884,3.526036 -12.18094,6.806996 C 299.42103,74.236396 297,80.250903 297,80.250903 Z"
       id="path9132"
       sodipodi:nodetypes="cssccssccsccssssc" /><path
       style="fill:#102312;fill-opacity:1;stroke:none;stroke-width:0.645142;stroke-linecap:round;stroke-miterlimit:0;stroke-opacity:1;paint-order:stroke fill markers"
       id="path9286-0"
       sodipodi:type="arc"
       sodipodi:cx="20.649324"
       sodipodi:cy="53.143559"
       sodipodi:rx="29.691845"
       sodipodi:ry="10.91612"
       sodipodi:start="0"
       sodipodi:end="6.2346028"
       sodipodi:open="true"
       sodipodi:arc-type="arc"
       d="M 50.341169,53.143559 A 29.691845,10.91612 0 0 1 21.009942,64.058873 29.691845,10.91612 0 0 1 -9.0337609,53.408699 29.691845,10.91612 0 0 1 19.567686,42.234684 29.691845,10.91612 0 0 1 50.306136,52.613435"
       transform="rotate(-10.396657)" /><path
       style="fill:#102312;fill-opacity:1;stroke:none;stroke-width:0.359677;stroke-linecap:round;stroke-miterlimit:0;stroke-opacity:1;paint-order:stroke fill markers;filter:url(#filter9376)"
       id="path9286-0-5"
       sodipodi:type="arc"
       sodipodi:cx="41.492805"
       sodipodi:cy="103.05276"
       sodipodi:rx="15.167507"
       sodipodi:ry="6.642097"
       sodipodi:start="0"
       sodipodi:end="6.2346028"
       sodipodi:open="true"
       sodipodi:arc-type="arc"
       d="m 56.660313,103.05276 a 15.167507,6.642097 0 0 1 -14.983293,6.6416 15.167507,6.642097 0 0 1 -15.347247,-6.48027 15.167507,6.642097 0 0 1 14.610498,-6.799021 15.167507,6.642097 0 0 1 15.702146,6.315121"
       transform="matrix(0.78637605,-0.6177481,0.56387507,0.8258601,0,0)" /><path
       style="fill:#1d3f21;fill-opacity:1;stroke:none;stroke-width:0.359677;stroke-linecap:round;stroke-miterlimit:0;stroke-opacity:1;paint-order:stroke fill markers;filter:url(#filter9376-7)"
       id="path9286-0-5-3"
       sodipodi:type="arc"
       sodipodi:cx="41.492805"
       sodipodi:cy="103.05276"
       sodipodi:rx="15.167507"
       sodipodi:ry="6.642097"
       sodipodi:start="0"
       sodipodi:end="6.2346028"
       sodipodi:open="true"
       sodipodi:arc-type="arc"
       d="m 56.660313,103.05276 a 15.167507,6.642097 0 0 1 -14.983293,6.6416 15.167507,6.642097 0 0 1 -15.347247,-6.48027 15.167507,6.642097 0 0 1 14.610498,-6.799021 15.167507,6.642097 0 0 1 15.702146,6.315121"
       transform="matrix(1.2205655,0.30719942,-0.36028786,1.318356,97.187226,-99.736999)" /><path
       style="opacity:1;fill:#17331b;fill-opacity:1;stroke:none;stroke-width:0.793999;stroke-linecap:round;stroke-miterlimit:0;stroke-opacity:1;paint-order:stroke fill markers"
       id="path9286"
       sodipodi:type="arc"
       sodipodi:cx="19.384735"
       sodipodi:cy="41.15134"
       sodipodi:rx="36.542824"
       sodipodi:ry="13.434861"
       sodipodi:start="0"
       sodipodi:end="6.2346028"
       sodipodi:open="true"
       sodipodi:arc-type="arc"
       d="M 55.927559,41.15134 A 36.542824,13.434861 0 0 1 19.82856,54.585211 36.542824,13.434861 0 0 1 -17.147308,41.477658 36.542824,13.434861 0 0 1 18.053523,27.725397 36.542824,13.434861 0 0 1 55.884442,40.498898"
       transform="rotate(-26.011247)" /><path
       style="fill:#1d4022;fill-opacity:1;stroke:none;stroke-width:0.73752;stroke-linecap:round;stroke-miterlimit:0;stroke-opacity:1;paint-order:stroke fill markers"
       id="path9286-8"
       sodipodi:type="arc"
       sodipodi:cx="79.183037"
       sodipodi:cy="18.509329"
       sodipodi:rx="33.943424"
       sodipodi:ry="12.479199"
       sodipodi:start="0"
       sodipodi:end="6.2346028"
       sodipodi:open="true"
       sodipodi:arc-type="arc"
       d="M 113.12646,18.509329 A 33.943424,12.479199 0 0 1 79.595291,30.987608 33.943424,12.479199 0 0 1 45.249627,18.812434 33.943424,12.479199 0 0 1 77.946518,6.0384125 33.943424,12.479199 0 0 1 113.08641,17.903297"
       transform="rotate(6.405653)" /><path
       style="fill:#224c28;fill-opacity:1;stroke:none;stroke-width:0.533746;stroke-linecap:round;stroke-miterlimit:0;stroke-opacity:1;paint-order:stroke fill markers"
       id="path9286-8-5"
       sodipodi:type="arc"
       sodipodi:cx="158.89742"
       sodipodi:cy="-4.2972741"
       sodipodi:rx="24.564978"
       sodipodi:ry="9.0312414"
       sodipodi:start="0"
       sodipodi:end="6.2346028"
       sodipodi:open="true"
       sodipodi:arc-type="arc"
       d="m 183.46239,-4.2972741 a 24.564978,9.0312414 0 0 1 -24.26663,9.0305753 24.564978,9.0312414 0 0 1 -24.85608,-8.8112167 24.564978,9.0312414 0 0 1 23.66286,-9.2446055 24.564978,9.0312414 0 0 1 25.43087,8.5866591"
       transform="rotate(19.127952)" /><path
       style="fill:#1f4726;fill-opacity:1;stroke:none;stroke-width:0.442989;stroke-linecap:round;stroke-miterlimit:0;stroke-opacity:1;paint-order:stroke fill markers"
       id="path9286-8-5-4-7"
       sodipodi:type="arc"
       sodipodi:cx="225.9166"
       sodipodi:cy="-96.173286"
       sodipodi:rx="21.161402"
       sodipodi:ry="7.2216263"
       sodipodi:start="0"
       sodipodi:end="6.2346028"
       sodipodi:open="true"
       sodipodi:arc-type="arc"
       d="m 247.078,-96.173286 a 21.161402,7.2216263 0 0 1 -20.90439,7.221093 21.161402,7.2216263 0 0 1 -21.41217,-7.045688 21.161402,7.2216263 0 0 1 20.38427,-7.392239 21.161402,7.2216263 0 0 1 21.90732,6.866127"
       transform="matrix(0.83363547,0.55231504,-0.60035448,0.79973402,0,0)" /><path
       style="fill:#0b1a0e;fill-opacity:1;stroke:none;stroke-width:0.76584;stroke-linecap:round;stroke-miterlimit:0;stroke-opacity:1;paint-order:stroke fill markers;filter:url(#filter10378)"
       id="path9286-8-5-4-7-6-3-6-9"
       sodipodi:type="arc"
       sodipodi:cx="-318.61679"
       sodipodi:cy="-92.653183"
       sodipodi:rx="36.583855"
       sodipodi:ry="12.484756"
       sodipodi:start="0"
       sodipodi:end="6.2346028"
       sodipodi:open="true"
       sodipodi:arc-type="arc"
       d="m -282.03294,-92.653183 a 36.583855,12.484756 0 0 1 -36.13953,12.483836 36.583855,12.484756 0 0 1 -37.01738,-12.180595 36.583855,12.484756 0 0 1 35.24035,-12.779708 36.583855,12.484756 0 0 1 37.8734,11.870165"
       transform="matrix(-0.97727313,0.21198402,-0.15418163,-0.98804252,0,0)" /><path
       style="fill:#25532d;fill-opacity:1;stroke:none;stroke-width:0.442989;stroke-linecap:round;stroke-miterlimit:0;stroke-opacity:1;paint-order:stroke fill markers"
       id="path9286-8-5-4-7-6"
       sodipodi:type="arc"
       sodipodi:cx="-260.2948"
       sodipodi:cy="226.14207"
       sodipodi:rx="21.161402"
       sodipodi:ry="7.2216263"
       sodipodi:start="0"
       sodipodi:end="6.2346028"
       sodipodi:open="true"
       sodipodi:arc-type="arc"
       d="m -239.1334,226.14207 a 21.161402,7.2216263 0 0 1 -20.90439,7.2211 21.161402,7.2216263 0 0 1 -21.41217,-7.04569 21.161402,7.2216263 0 0 1 20.38428,-7.39224 21.161402,7.2216263 0 0 1 21.90731,6.86613"
       transform="matrix(-0.68995979,-0.72384769,0.76314657,-0.64622543,0,0)" /><path
       style="fill:#18371d;fill-opacity:1;stroke:none;stroke-width:0.5899;stroke-linecap:round;stroke-miterlimit:0;stroke-opacity:1;paint-order:stroke fill markers"
       id="path9286-8-5-4-7-6-3-6"
       sodipodi:type="arc"
       sodipodi:cx="-364.44812"
       sodipodi:cy="53.905338"
       sodipodi:rx="28.179283"
       sodipodi:ry="9.6165781"
       sodipodi:start="0"
       sodipodi:end="6.2346028"
       sodipodi:open="true"
       sodipodi:arc-type="arc"
       d="m -336.26884,53.905338 a 28.179283,9.6165781 0 0 1 -27.83703,9.615869 28.179283,9.6165781 0 0 1 -28.51322,-9.382293 28.179283,9.6165781 0 0 1 27.14443,-9.843771 28.179283,9.6165781 0 0 1 29.17257,9.143182"
       transform="matrix(-0.97591888,-0.21813375,0.27511307,-0.96141188,0,0)" /><path
       style="fill:#1f4726;fill-opacity:1;stroke:none;stroke-width:0.433352;stroke-linecap:round;stroke-miterlimit:0;stroke-opacity:1;paint-order:stroke fill markers"
       id="path9286-8-5-4-7-6-3"
       sodipodi:type="arc"
       sodipodi:cx="-376.69925"
       sodipodi:cy="-190.89978"
       sodipodi:rx="18.914522"
       sodipodi:ry="7.7317739"
       sodipodi:start="0"
       sodipodi:end="6.2346028"
       sodipodi:open="true"
       sodipodi:arc-type="arc"
       d="m -357.78473,-190.89978 a 18.914522,7.7317739 0 0 1 -18.6848,7.7312 18.914522,7.7317739 0 0 1 -19.13866,-7.5434 18.914522,7.7317739 0 0 1 18.21991,-7.91444 18.914522,7.7317739 0 0 1 19.58124,7.35116"
       transform="matrix(-0.92871995,0.37078194,-0.15846003,-0.98736539,0,0)" /><path
       style="fill:#1f4726;fill-opacity:1;stroke:none;stroke-width:0.442989;stroke-linecap:round;stroke-miterlimit:0;stroke-opacity:1;paint-order:stroke fill markers"
       id="path9286-8-5-4-7-9"
       sodipodi:type="arc"
       sodipodi:cx="296.1879"
       sodipodi:cy="-8.4199877"
       sodipodi:rx="21.161402"
       sodipodi:ry="7.2216263"
       sodipodi:start="0"
       sodipodi:end="6.2346028"
       sodipodi:open="true"
       sodipodi:arc-type="arc"
       d="m 317.3493,-8.4199877 a 21.161402,7.2216263 0 0 1 -20.90439,7.2210937 21.161402,7.2216263 0 0 1 -21.41217,-7.0456886 21.161402,7.2216263 0 0 1 20.38427,-7.3922384 21.161402,7.2216263 0 0 1 21.90732,6.8661266"
       transform="matrix(0.98537336,0.17040936,-0.22802682,0.97365485,0,0)" /><path
       style="fill:#102514;fill-opacity:1;stroke:none;stroke-width:0.566889;stroke-linecap:round;stroke-miterlimit:0;stroke-opacity:1;paint-order:stroke fill markers"
       id="path9286-8-5-4-7-9-7"
       sodipodi:type="arc"
       sodipodi:cx="266.37595"
       sodipodi:cy="43.831516"
       sodipodi:rx="27.080074"
       sodipodi:ry="9.241457"
       sodipodi:start="0"
       sodipodi:end="6.2346028"
       sodipodi:open="true"
       sodipodi:arc-type="arc"
       d="m 293.45602,43.831516 a 27.080074,9.241457 0 0 1 -26.75118,9.240776 27.080074,9.241457 0 0 1 -27.40098,-9.016311 27.080074,9.241457 0 0 1 26.08559,-9.459788 27.080074,9.241457 0 0 1 28.03462,8.786527"
       transform="matrix(0.99875856,-0.04981296,-0.00897184,0.99995975,0,0)" /><path
       style="fill:#285a30;fill-opacity:1;stroke:none;stroke-width:0.57034;stroke-linecap:round;stroke-miterlimit:0;stroke-opacity:1;paint-order:stroke fill markers"
       id="path9286-8-5-4"
       sodipodi:type="arc"
       sodipodi:cx="227.96034"
       sodipodi:cy="-65.114624"
       sodipodi:rx="27.244953"
       sodipodi:ry="9.2977238"
       sodipodi:start="0"
       sodipodi:end="6.2346028"
       sodipodi:open="true"
       sodipodi:arc-type="arc"
       d="m 255.2053,-65.114624 a 27.244953,9.2977238 0 0 1 -26.91406,9.297038 27.244953,9.2977238 0 0 1 -27.56781,-9.071207 27.244953,9.2977238 0 0 1 26.24441,-9.517383 27.244953,9.2977238 0 0 1 28.20531,8.840023"
       transform="matrix(0.87362273,0.48660388,-0.53710702,0.84351411,0,0)" /><path
       style="fill:#224c28;fill-opacity:1;stroke:none;stroke-width:0.533746;stroke-linecap:round;stroke-miterlimit:0;stroke-opacity:1;paint-order:stroke fill markers"
       id="path9286-8-5-9"
       sodipodi:type="arc"
       sodipodi:cx="186.57681"
       sodipodi:cy="53.408089"
       sodipodi:rx="24.564978"
       sodipodi:ry="9.0312414"
       sodipodi:start="0"
       sodipodi:end="6.2346028"
       sodipodi:open="true"
       sodipodi:arc-type="arc"
       d="m 211.14179,53.408089 a 24.564978,9.0312414 0 0 1 -24.26663,9.030575 24.564978,9.0312414 0 0 1 -24.85608,-8.811217 24.564978,9.0312414 0 0 1 23.66286,-9.244605 24.564978,9.0312414 0 0 1 25.43087,8.586659"
       transform="rotate(-6.3029196)" /><path
       style="fill:#16321b;fill-opacity:1;stroke:none;stroke-width:0.645953;stroke-linecap:round;stroke-miterlimit:0;stroke-opacity:1;paint-order:stroke fill markers"
       id="path9286-8-5-9-3"
       sodipodi:type="arc"
       sodipodi:cx="157.1134"
       sodipodi:cy="37.358101"
       sodipodi:rx="29.729164"
       sodipodi:ry="10.929839"
       sodipodi:start="0"
       sodipodi:end="6.2346028"
       sodipodi:open="true"
       sodipodi:arc-type="arc"
       d="m 186.84257,37.358101 a 29.729164,10.929839 0 0 1 -29.3681,10.929033 29.729164,10.929839 0 0 1 -30.08146,-10.66356 29.729164,10.929839 0 0 1 28.6374,-11.188058 29.729164,10.929839 0 0 1 30.77708,10.391795"
       transform="rotate(-6.3029196)" /></g></svg>
