<?xml version="1.0" encoding="UTF-8" standalone="no"?>
<!-- Created with Inkscape (http://www.inkscape.org/) -->

<svg
   width="1500"
   height="1000"
   viewBox="0 0 396.875 264.58333"
   version="1.1"
   id="svg14870"
   inkscape:version="1.2.1 (9c6d41e410, 2022-07-14)"
   sodipodi:docname="Arena_Lava.svg"
   xml:space="preserve"
   xmlns:inkscape="http://www.inkscape.org/namespaces/inkscape"
   xmlns:sodipodi="http://sodipodi.sourceforge.net/DTD/sodipodi-0.dtd"
   xmlns:xlink="http://www.w3.org/1999/xlink"
   xmlns="http://www.w3.org/2000/svg"
   xmlns:svg="http://www.w3.org/2000/svg"><sodipodi:namedview
     id="namedview14872"
     pagecolor="#ffffff"
     bordercolor="#000000"
     borderopacity="0.25"
     inkscape:showpageshadow="2"
     inkscape:pageopacity="0.0"
     inkscape:pagecheckerboard="0"
     inkscape:deskcolor="#d1d1d1"
     inkscape:document-units="px"
     showgrid="false"
     inkscape:zoom="0.52221046"
     inkscape:cx="622.35444"
     inkscape:cy="597.46026"
     inkscape:window-width="1920"
     inkscape:window-height="1009"
     inkscape:window-x="-8"
     inkscape:window-y="-8"
     inkscape:window-maximized="1"
     inkscape:current-layer="layer1" /><defs
     id="defs14867"><linearGradient
       inkscape:collect="always"
       id="linearGradient26690"><stop
         style="stop-color:#6b5734;stop-opacity:1;"
         offset="0"
         id="stop26686" /><stop
         style="stop-color:#6b5734;stop-opacity:0.48557693;"
         offset="1"
         id="stop26688" /></linearGradient><linearGradient
       inkscape:collect="always"
       id="linearGradient24923"><stop
         style="stop-color:#f12a2a;stop-opacity:1;"
         offset="0"
         id="stop24919" /><stop
         style="stop-color:#000000;stop-opacity:1;"
         offset="1"
         id="stop24921" /></linearGradient><inkscape:path-effect
       effect="bspline"
       id="path-effect20706"
       is_visible="true"
       lpeversion="1"
       weight="33.333333"
       steps="2"
       helper_size="0"
       apply_no_weight="true"
       apply_with_weight="true"
       only_selected="false" /><inkscape:path-effect
       effect="bspline"
       id="path-effect20706-5"
       is_visible="true"
       lpeversion="1"
       weight="33.333333"
       steps="2"
       helper_size="0"
       apply_no_weight="true"
       apply_with_weight="true"
       only_selected="false" /><inkscape:path-effect
       effect="bspline"
       id="path-effect20706-6"
       is_visible="true"
       lpeversion="1"
       weight="33.333333"
       steps="2"
       helper_size="0"
       apply_no_weight="true"
       apply_with_weight="true"
       only_selected="false" /><inkscape:path-effect
       effect="bspline"
       id="path-effect20706-7"
       is_visible="true"
       lpeversion="1"
       weight="33.333333"
       steps="2"
       helper_size="0"
       apply_no_weight="true"
       apply_with_weight="true"
       only_selected="false" /><inkscape:path-effect
       effect="bspline"
       id="path-effect20706-7-4"
       is_visible="true"
       lpeversion="1"
       weight="33.333333"
       steps="2"
       helper_size="0"
       apply_no_weight="true"
       apply_with_weight="true"
       only_selected="false" /><inkscape:path-effect
       effect="bspline"
       id="path-effect20706-6-4"
       is_visible="true"
       lpeversion="1"
       weight="33.333333"
       steps="2"
       helper_size="0"
       apply_no_weight="true"
       apply_with_weight="true"
       only_selected="false" /><inkscape:path-effect
       effect="bspline"
       id="path-effect20706-5-0"
       is_visible="true"
       lpeversion="1"
       weight="33.333333"
       steps="2"
       helper_size="0"
       apply_no_weight="true"
       apply_with_weight="true"
       only_selected="false" /><inkscape:path-effect
       effect="bspline"
       id="path-effect20706-8"
       is_visible="true"
       lpeversion="1"
       weight="33.333333"
       steps="2"
       helper_size="0"
       apply_no_weight="true"
       apply_with_weight="true"
       only_selected="false" /><radialGradient
       inkscape:collect="always"
       xlink:href="#linearGradient24923"
       id="radialGradient24931"
       cx="198.78996"
       cy="133.20381"
       fx="198.78996"
       fy="133.20381"
       r="197.76117"
       gradientTransform="matrix(1,0,0,0.60416662,0,52.726515)"
       gradientUnits="userSpaceOnUse" /><filter
       inkscape:collect="always"
       style="color-interpolation-filters:sRGB"
       id="filter24933"
       x="-0.014568386"
       y="-0.024113192"
       width="1.0291368"
       height="1.0482264"><feGaussianBlur
         inkscape:collect="always"
         stdDeviation="2.4008841"
         id="feGaussianBlur24935" /></filter><radialGradient
       inkscape:collect="always"
       xlink:href="#linearGradient26690"
       id="radialGradient26692"
       cx="198.61085"
       cy="180.31547"
       fx="198.61085"
       fy="180.31547"
       r="198.29856"
       gradientTransform="matrix(1,0,0,0.31255961,0,123.95614)"
       gradientUnits="userSpaceOnUse" /></defs><g
     inkscape:label="Ebene 1"
     inkscape:groupmode="layer"
     id="layer1"><rect
       style="mix-blend-mode:normal;fill:url(#radialGradient24931);fill-opacity:1;stroke:none;stroke-width:0.920509;stroke-linecap:round;stroke-miterlimit:0;stroke-opacity:1;paint-order:stroke fill markers;filter:url(#filter24933)"
       id="rect6043"
       width="395.52234"
       height="238.9614"
       x="1.0287919"
       y="13.723115" /><rect
       style="opacity:1;fill:#4b251a;fill-opacity:1;stroke:none;stroke-width:0.794015;stroke-linecap:round;stroke-miterlimit:0;stroke-dasharray:none;stroke-opacity:1;paint-order:stroke fill markers"
       id="rect26548"
       width="51.858562"
       height="42.633293"
       x="171.69753"
       y="64.308205" /><path
       sodipodi:type="star"
       style="opacity:1;fill:#a99d81;fill-opacity:1;stroke:none;stroke-width:0.794015;stroke-linecap:round;stroke-miterlimit:0;stroke-dasharray:none;stroke-opacity:1;paint-order:stroke fill markers"
       id="path25767"
       inkscape:flatsided="true"
       sodipodi:sides="3"
       sodipodi:cx="179.84802"
       sodipodi:cy="71.652596"
       sodipodi:r1="10.777703"
       sodipodi:r2="5.3888516"
       sodipodi:arg1="1.3016288"
       sodipodi:arg2="2.3488264"
       inkscape:rounded="0"
       inkscape:randomized="0"
       d="M 182.71413,82.042222 169.41729,68.939901 187.41265,63.975663 Z"
       inkscape:transform-center-x="1.1996157"
       inkscape:transform-center-y="0.74823832"
       transform="matrix(0.5793098,-0.05420297,0.07111634,0.76007629,71.765202,31.331112)" /><path
       sodipodi:type="star"
       style="fill:#a99d81;fill-opacity:1;stroke:none;stroke-width:0.794015;stroke-linecap:round;stroke-miterlimit:0;stroke-dasharray:none;stroke-opacity:1;paint-order:stroke fill markers"
       id="path25767-3"
       inkscape:flatsided="true"
       sodipodi:sides="3"
       sodipodi:cx="179.84802"
       sodipodi:cy="71.652596"
       sodipodi:r1="10.777703"
       sodipodi:r2="5.3888516"
       sodipodi:arg1="1.3016288"
       sodipodi:arg2="2.3488264"
       inkscape:rounded="0"
       inkscape:randomized="0"
       d="M 182.71413,82.042222 169.41729,68.939901 187.41265,63.975663 Z"
       inkscape:transform-center-x="-1.1996142"
       inkscape:transform-center-y="0.74823832"
       transform="matrix(-0.5793098,-0.05420297,-0.07111634,0.76007629,323.47034,30.400802)" /><path
       sodipodi:type="star"
       style="fill:#a99d81;fill-opacity:1;stroke:none;stroke-width:0.794015;stroke-linecap:round;stroke-miterlimit:0;stroke-dasharray:none;stroke-opacity:1;paint-order:stroke fill markers"
       id="path25767-3-8"
       inkscape:flatsided="true"
       sodipodi:sides="3"
       sodipodi:cx="179.84802"
       sodipodi:cy="71.652596"
       sodipodi:r1="10.777703"
       sodipodi:r2="5.3888516"
       sodipodi:arg1="1.3016288"
       sodipodi:arg2="2.3488264"
       inkscape:rounded="0"
       inkscape:randomized="0"
       d="M 182.71413,82.042222 169.41729,68.939901 187.41265,63.975663 Z"
       inkscape:transform-center-x="0.28005365"
       inkscape:transform-center-y="1.2111312"
       transform="matrix(-0.34658901,0.11396077,0.14952081,0.45473784,238.86357,16.978528)" /><path
       sodipodi:type="star"
       style="fill:#a99d81;fill-opacity:1;stroke:none;stroke-width:0.794015;stroke-linecap:round;stroke-miterlimit:0;stroke-dasharray:none;stroke-opacity:1;paint-order:stroke fill markers"
       id="path25767-3-8-3"
       inkscape:flatsided="true"
       sodipodi:sides="3"
       sodipodi:cx="179.84802"
       sodipodi:cy="71.652596"
       sodipodi:r1="10.777703"
       sodipodi:r2="5.3888516"
       sodipodi:arg1="1.3016288"
       sodipodi:arg2="2.3488264"
       inkscape:rounded="0"
       inkscape:randomized="0"
       d="M 182.71413,82.042222 169.41729,68.939901 187.41265,63.975663 Z"
       inkscape:transform-center-x="-0.28004935"
       inkscape:transform-center-y="1.2111312"
       transform="matrix(0.34658901,0.11396077,-0.14952081,0.45473784,156.27364,16.825303)" /><path
       sodipodi:type="star"
       style="fill:#a99d81;fill-opacity:1;stroke:none;stroke-width:0.794015;stroke-linecap:round;stroke-miterlimit:0;stroke-dasharray:none;stroke-opacity:1;paint-order:stroke fill markers"
       id="path25767-3-8-2"
       inkscape:flatsided="true"
       sodipodi:sides="3"
       sodipodi:cx="179.84802"
       sodipodi:cy="71.652596"
       sodipodi:r1="10.777703"
       sodipodi:r2="5.3888516"
       sodipodi:arg1="1.3016288"
       sodipodi:arg2="2.3488264"
       inkscape:rounded="0"
       inkscape:randomized="0"
       d="M 182.71413,82.042222 169.41729,68.939901 187.41265,63.975663 Z"
       inkscape:transform-center-x="0.28005365"
       inkscape:transform-center-y="1.2111312"
       transform="matrix(-0.34658901,0.11396077,0.14952081,0.45473784,243.83923,15.660949)" /><path
       sodipodi:type="star"
       style="fill:#a99d81;fill-opacity:1;stroke:none;stroke-width:0.794015;stroke-linecap:round;stroke-miterlimit:0;stroke-dasharray:none;stroke-opacity:1;paint-order:stroke fill markers"
       id="path25767-3-8-0"
       inkscape:flatsided="true"
       sodipodi:sides="3"
       sodipodi:cx="179.84802"
       sodipodi:cy="71.652596"
       sodipodi:r1="10.777703"
       sodipodi:r2="5.3888516"
       sodipodi:arg1="1.3016288"
       sodipodi:arg2="2.3488264"
       inkscape:rounded="0"
       inkscape:randomized="0"
       d="M 182.71413,82.042222 169.41729,68.939901 187.41265,63.975663 Z"
       inkscape:transform-center-x="0.28005365"
       inkscape:transform-center-y="1.2111312"
       transform="matrix(-0.34658901,0.11396077,0.14952081,0.45473784,248.04882,15.571383)" /><path
       sodipodi:type="star"
       style="fill:#a99d81;fill-opacity:1;stroke:none;stroke-width:0.794015;stroke-linecap:round;stroke-miterlimit:0;stroke-dasharray:none;stroke-opacity:1;paint-order:stroke fill markers"
       id="path25767-3-8-0-3"
       inkscape:flatsided="true"
       sodipodi:sides="3"
       sodipodi:cx="179.84802"
       sodipodi:cy="71.652596"
       sodipodi:r1="10.777703"
       sodipodi:r2="5.3888516"
       sodipodi:arg1="1.3016288"
       sodipodi:arg2="2.3488264"
       inkscape:rounded="0"
       inkscape:randomized="0"
       d="M 182.71413,82.042222 169.41729,68.939901 187.41265,63.975663 Z"
       inkscape:transform-center-x="-0.28004935"
       inkscape:transform-center-y="1.2111312"
       transform="matrix(0.34658901,0.11396077,-0.14952081,0.45473784,152.24318,16.019211)" /><path
       sodipodi:type="star"
       style="fill:#a99d81;fill-opacity:1;stroke:none;stroke-width:0.794015;stroke-linecap:round;stroke-miterlimit:0;stroke-dasharray:none;stroke-opacity:1;paint-order:stroke fill markers"
       id="path25767-3-8-0-3-4"
       inkscape:flatsided="true"
       sodipodi:sides="3"
       sodipodi:cx="179.84802"
       sodipodi:cy="71.652596"
       sodipodi:r1="10.777703"
       sodipodi:r2="5.3888516"
       sodipodi:arg1="1.3016288"
       sodipodi:arg2="2.3488264"
       inkscape:rounded="0"
       inkscape:randomized="0"
       d="M 182.71413,82.042222 169.41729,68.939901 187.41265,63.975663 Z"
       inkscape:transform-center-x="-0.28004935"
       inkscape:transform-center-y="1.2111312"
       transform="matrix(0.34658901,0.11396077,-0.14952081,0.45473784,148.90655,16.019212)" /><path
       id="path20134"
       style="opacity:1;fill:#d3947d;fill-opacity:1;stroke-width:0.793999;stroke-linecap:round;stroke-miterlimit:0;paint-order:stroke fill markers"
       d="M 226.06372 25.078572 C 226.06372 25.078572 227.97883 27.329023 228.57158 28.660783 C 229.21945 30.116386 229.7941 31.731962 229.64645 33.31838 C 229.45317 35.395 228.7035 37.67216 227.13859 39.050846 C 225.55076 40.449725 221.048 40.841951 221.048 40.841951 C 221.048 40.841951 217.05779 36.804276 214.5993 35.468119 C 211.41329 33.736562 207.81152 32.663315 204.20976 32.24351 C 200.76167 31.841617 197.21829 32.250398 193.82021 32.960262 C 190.34459 33.686323 187.00276 35.033878 183.78878 36.542989 C 180.39617 38.135977 174.11599 42.274939 174.11599 42.274939 C 174.11599 42.274939 168.87442 39.978719 167.66728 37.617859 C 166.79741 35.916613 167.11358 33.71414 167.66728 31.885392 C 168.29115 29.824878 171.24949 26.51156 171.24949 26.51156 C 171.24949 26.51156 164.87267 27.924636 162.65157 30.094287 C 160.96885 31.738025 160.2734 34.241913 159.78508 36.542989 C 159.23968 39.113014 158.95427 41.932242 159.78508 44.424678 C 160.91801 47.823457 165.36208 49.330552 166.23378 53.02312 C 167.10548 56.715687 166.38591 60.872789 165.87566 64.845654 C 164.86878 72.685621 163.18674 80.752905 164.80079 88.490722 C 166.07642 94.606149 165.63969 106.67525 170.34051 107.04153 C 170.66163 106.58278 171.07539 106.0218 171.60813 105.32949 C 176.92958 98.414018 213.43387 111.37205 222.48151 104.61274 C 231.52915 97.853409 226.1554 93.956431 227.49722 88.490722 C 228.77053 83.304068 229.88357 78.046428 230.3632 72.727343 C 230.69566 69.040255 230.70167 65.307586 230.3632 61.621045 C 230.06339 58.355594 228.57158 51.94825 228.57158 51.94825 C 228.57158 51.94825 232.11251 49.283977 233.58729 47.648771 C 234.8519 46.246593 236.164 44.765263 236.8119 42.991691 C 237.67631 40.625451 238.01569 37.939677 237.52814 35.468119 C 237.0319 32.952522 235.81067 30.420662 233.94593 28.660783 C 231.8471 26.67999 226.06372 25.078572 226.06372 25.078572 z M 170.34051 107.04153 C 167.45391 111.16514 172.38 106.60392 171.96625 106.76247 C 171.36464 106.99301 170.82531 107.0793 170.34051 107.04153 z M 192.41616 67.597424 C 195.01453 67.568019 197.7148 67.967568 200.26891 68.069746 C 203.88036 68.214224 208.03815 67.456482 211.01709 69.503251 C 214.71696 72.045347 216.09645 77.050722 217.46579 81.325785 C 218.67674 85.106314 219.34624 89.203884 218.89878 93.148319 C 218.38356 97.69006 214.24119 106.04572 214.24119 106.04572 L 179.48982 102.82163 C 179.48982 102.82163 178.09805 92.573472 178.05683 87.416369 C 178.03193 84.302354 177.59052 80.982024 178.77307 78.101175 C 180.31759 74.338515 183.01123 70.594226 186.65476 68.786499 C 188.43572 67.902877 190.39521 67.620294 192.41616 67.597424 z " /><path
       style="fill:#c0c0c0;fill-opacity:1;stroke:none;stroke-width:0.793999;stroke-linecap:round;stroke-miterlimit:0;stroke-opacity:1;paint-order:stroke fill markers"
       d="m 0.3122907,130.8751 c 0,0 76.6540403,-32.288165 199.5524693,-31.885398 118.9161,0.38971 197.04465,33.318448 197.04465,33.318448 v 8.59831 c 0,0 -72.96559,-32.88327 -198.11944,-36.18456 C 87.848241,101.79551 0.6705607,136.60731 0.6705607,136.60731 Z"
       id="path1385"
       sodipodi:nodetypes="csccscc" /><path
       style="fill:#8c8c8c;fill-opacity:1;stroke:none;stroke-width:0.793999;stroke-linecap:round;stroke-miterlimit:0;stroke-opacity:1;paint-order:stroke fill markers"
       d="m 0.6705607,136.96557 c 0,0 67.6565503,-32.76027 197.4028893,-32.60193 120.2932,0.14681 198.47768,36.54283 198.47768,36.54283 l 0.35828,12.89746 c 0,0 -82.88638,-33.1845 -197.76117,-33.67671 C 99.081441,119.69846 0.6705607,153.80393 0.6705607,153.80393 Z"
       id="path1441"
       sodipodi:nodetypes="csccscc" /><path
       style="opacity:1;fill:#4b251a;fill-opacity:1;stroke-width:0.793999;stroke-linecap:round;stroke-miterlimit:0;paint-order:stroke fill markers"
       d="m 197.76116,50.515077 -5.37395,9.673101 4.29916,0.358264 1.43305,-2.507843 2.50784,2.866105 2.8661,-1.074788 z"
       id="path20624" /><path
       style="fill:#8c8c8c;fill-opacity:1;stroke:none;stroke-width:0.793999;stroke-linecap:round;stroke-miterlimit:0;stroke-opacity:1;paint-order:stroke fill markers"
       d="m 0.6705607,209.33469 c 0,0 72.1144703,30.41336 196.3280993,31.52715 115.68296,1.03729 199.55247,-31.88541 199.55247,-31.88541 l 0.35828,7.88178 c 0,0 -90.81806,36.05401 -200.62728,35.46804 C 75.310981,251.68072 0.6705607,219.36606 0.6705607,219.36606 Z"
       id="path2949"
       sodipodi:nodetypes="csccscc" /><path
       style="fill:#666666;fill-opacity:1;stroke:none;stroke-width:0.793999;stroke-linecap:round;stroke-miterlimit:0;stroke-opacity:1;paint-order:stroke fill markers"
       d="m 0.3122907,219.36606 c 0,0 23.5153803,9.96569 73.0856503,20.42099 39.706529,8.37485 121.092879,12.5392 121.092879,12.5392 0,0 86.26111,-6.44121 128.6164,-14.68878 37.83836,-7.36802 73.44391,-20.42099 73.44391,-20.42099 v 18.27141 c 0,0 -13.40269,6.81078 -61.62124,16.83836 -5.32693,1.10779 -246.462039,-0.13168 -248.276219,-0.35826 -43.2817,-5.40561 -86.3413803,-16.83836 -86.3413803,-16.83836 z"
       id="path3742"
       sodipodi:nodetypes="cscsccsscc" /><path
       style="fill:url(#radialGradient26692);fill-opacity:1;stroke:none;stroke-width:0.80693;stroke-linecap:round;stroke-miterlimit:0;stroke-opacity:1;paint-order:stroke fill markers"
       d="m 0.3122907,153.85847 c 0,0 96.3236403,-35.6879 194.8950493,-35.52255 117.11029,0.19645 201.34379,34.41247 201.34379,34.41247 l 0.35828,56.98412 c 0,0 -69.53132,32.36391 -203.85164,32.56235 C 72.184731,242.47343 0.6705607,209.73251 0.6705607,209.73251 Z"
       id="path3744"
       sodipodi:nodetypes="csccscc" /><path
       style="opacity:1;fill:#4c261a;fill-opacity:1;stroke-width:0.793999;stroke-linecap:round;stroke-miterlimit:0;paint-order:stroke fill markers"
       d="m 191.67069,54.455969 c 0,0 -3.23455,-3.341983 -5.37395,-3.582628 -2.66683,-0.299971 -5.86631,0.755264 -7.52352,2.866105 -1.1891,1.514594 -1.99089,4.288622 -0.71652,5.732205 1.50163,1.701017 4.65141,0.708392 6.80699,0 2.67756,-0.879931 6.807,-5.015682 6.807,-5.015682 z"
       id="path20626"
       sodipodi:nodetypes="cssssc" /><path
       style="opacity:1;fill:#4b251a;fill-opacity:1;stroke-width:0.793999;stroke-linecap:round;stroke-miterlimit:0;paint-order:stroke fill markers"
       d="m 204.20989,54.097707 c 0,0 3.23455,-3.341983 5.37395,-3.582628 2.66683,-0.299971 5.86631,0.755264 7.52352,2.866105 1.1891,1.514594 1.99089,4.288622 0.71652,5.732205 -1.50163,1.701017 -4.65141,0.708392 -6.80699,0 -2.67756,-0.879931 -6.807,-5.015682 -6.807,-5.015682 z"
       id="path20626-6"
       sodipodi:nodetypes="cssssc" /><path
       style="opacity:1;fill:none;fill-opacity:1;stroke-width:0.79401458;stroke-linecap:round;stroke-miterlimit:0;paint-order:stroke fill markers;stroke:#5f3121;stroke-opacity:1;stroke-dasharray:none"
       d="m 162.65139,48.723764 c 2.1497,-0.955422 4.29928,-1.910792 5.67254,-3.343752 1.37325,-1.43296 1.97034,-3.343659 2.5675,-5.254561"
       id="path20704"
       inkscape:path-effect="#path-effect20706"
       inkscape:original-d="m 162.65139,48.723764 c 2.14984,-0.955104 4.29942,-1.910472 6.44873,-2.866105 0.59738,-1.910508 1.19447,-3.821207 1.79131,-5.732208" /><path
       style="fill:none;fill-opacity:1;stroke:#5f3121;stroke-width:0.794015;stroke-linecap:round;stroke-miterlimit:0;stroke-dasharray:none;stroke-opacity:1;paint-order:stroke fill markers"
       d="m 159.47181,42.812425 c 1.94084,-0.104507 3.88139,-0.208999 5.30686,-0.94043 1.42547,-0.731431 2.33603,-2.089819 3.24666,-3.448293"
       id="path20704-3"
       inkscape:path-effect="#path-effect20706-5"
       inkscape:original-d="m 159.47181,42.812425 c 1.94085,-0.104229 3.88141,-0.208721 5.82177,-0.313482 0.91086,-1.358175 1.82143,-2.716562 2.73175,-4.075241"
       sodipodi:nodetypes="ccc" /><path
       style="fill:none;fill-opacity:1;stroke:#5f3121;stroke-width:0.794015;stroke-linecap:round;stroke-miterlimit:0;stroke-dasharray:none;stroke-opacity:1;paint-order:stroke fill markers"
       d="m 160.14355,35.423252 c 1.35873,0.462864 2.71712,0.925611 3.88134,0.746411 1.16423,-0.179199 2.13451,-1.000202 3.10478,-1.821202"
       id="path20704-1"
       inkscape:path-effect="#path-effect20706-6"
       inkscape:original-d="m 160.14355,35.423252 c 1.35868,0.46302 2.71706,0.925767 4.07524,1.388267 0.97057,-0.82077 1.94085,-1.641774 2.91088,-2.463058"
       sodipodi:nodetypes="ccc" /><path
       style="fill:none;fill-opacity:1;stroke:#5f3121;stroke-width:0.794015;stroke-linecap:round;stroke-miterlimit:0;stroke-dasharray:none;stroke-opacity:1;paint-order:stroke fill markers"
       d="m 163.50226,29.46713 c 0.50776,0.686968 1.01529,1.373625 1.74677,1.679489 0.73148,0.305863 1.68682,0.231227 2.64195,0.156607"
       id="path20704-35"
       inkscape:path-effect="#path-effect20706-7"
       inkscape:original-d="m 163.50226,29.46713 c 0.50781,0.686935 1.01534,1.373592 1.52262,2.060011 0.95565,-0.07437 1.911,-0.149012 2.8661,-0.223915"
       sodipodi:nodetypes="ccc" /><path
       style="fill:none;fill-opacity:1;stroke:#5f3121;stroke-width:0.794015;stroke-linecap:round;stroke-miterlimit:0;stroke-dasharray:none;stroke-opacity:1;paint-order:stroke fill markers"
       d="m 233.9681,47.156364 c -2.01532,-0.641919 -4.02994,-1.283613 -5.35873,-2.50769 -1.32879,-1.224077 -1.97066,-3.030284 -2.61261,-4.836703"
       id="path20704-8"
       inkscape:path-effect="#path-effect20706-8"
       inkscape:original-d="m 233.9681,47.156364 c -2.01537,-0.641756 -4.02999,-1.283449 -6.04568,-1.925665 -0.64169,-1.806155 -1.28356,-3.612362 -1.92566,-5.418728"
       sodipodi:nodetypes="ccc" /><path
       style="fill:none;fill-opacity:1;stroke:#5f3121;stroke-width:0.794015;stroke-linecap:round;stroke-miterlimit:0;stroke-dasharray:none;stroke-opacity:1;paint-order:stroke fill markers"
       d="m 237.32681,40.886761 c -1.88113,0.104507 -3.76113,0.208951 -5.2318,-0.343333 -1.47066,-0.552284 -2.5305,-1.761399 -3.59041,-2.970601"
       id="path20704-3-3"
       inkscape:path-effect="#path-effect20706-5-0"
       inkscape:original-d="m 237.32681,40.886761 c -1.88112,0.104786 -3.76112,0.20923 -5.64263,0.313479 -1.05981,-1.209112 -2.11965,-2.418228 -3.17958,-3.627413"
       sodipodi:nodetypes="ccc" /><path
       style="fill:none;fill-opacity:1;stroke:#5f3121;stroke-width:0.794015;stroke-linecap:round;stroke-miterlimit:0;stroke-dasharray:none;stroke-opacity:1;paint-order:stroke fill markers"
       d="m 237.14769,34.572377 c -1.25426,0.627127 -2.50732,1.253658 -3.76902,1.261227 -1.26169,0.0076 -2.53052,-0.604454 -3.79928,-1.216446"
       id="path20704-1-6"
       inkscape:path-effect="#path-effect20706-6-4"
       inkscape:original-d="m 237.14769,34.572377 c -1.2541,0.627444 -2.50716,1.253975 -3.76176,1.880879 -1.26901,-0.611972 -2.53783,-1.223995 -3.80654,-1.836098"
       sodipodi:nodetypes="ccc" /><path
       style="fill:none;fill-opacity:1;stroke:#5f3121;stroke-width:0.794015;stroke-linecap:round;stroke-miterlimit:0;stroke-dasharray:none;stroke-opacity:1;paint-order:stroke fill markers"
       d="m 234.01289,29.019301 c -0.55254,0.627211 -1.10435,1.25358 -1.85101,1.574696 -0.74667,0.321115 -1.6871,0.336043 -2.62728,0.350966"
       id="path20704-35-4"
       inkscape:path-effect="#path-effect20706-7-4"
       inkscape:original-d="m 234.01289,29.019301 c -0.55226,0.627458 -1.10407,1.253827 -1.65697,1.88088 -0.94071,0.0152 -1.88113,0.03013 -2.82132,0.04478"
       sodipodi:nodetypes="ccc" /></g></svg>
