<?xml version="1.0" encoding="UTF-8" standalone="no"?>
<!-- Created with Inkscape (http://www.inkscape.org/) -->

<svg
   width="643.30969"
   height="789.34393"
   viewBox="0 0 170.20901 208.84724"
   version="1.1"
   id="svg7354"
   xmlns="http://www.w3.org/2000/svg"
   xmlns:svg="http://www.w3.org/2000/svg">
  <defs
     id="defs7351" />
  <g
     id="layer1"
     transform="translate(-49.602369,-27.760518)">
    <path
       id="path7892"
       style="fill:#438141;fill-opacity:1;stroke:#000000;stroke-width:3.175;stroke-linecap:round;stroke-miterlimit:0;stroke-dasharray:none;paint-order:stroke fill markers"
       d="m 137.37648,34.751367 a 78.459595,37.25935 0 0 0 -78.459814,37.25974 78.459595,37.25935 0 0 0 18.940446,24.245032 63.054287,99.955376 0 0 0 -4.968172,38.809001 63.054287,99.955376 0 0 0 63.05455,99.95514 63.054287,99.955376 0 0 0 63.05403,-99.95514 63.054287,99.955376 0 0 0 -4.6023,-37.470065 78.459595,37.25935 0 0 0 21.44055,-25.583968 78.459595,37.25935 0 0 0 -78.45929,-37.25974 z" />
    <path
       style="fill:none;fill-opacity:1;stroke:#000000;stroke-width:0.79375;stroke-linecap:round;stroke-miterlimit:0;stroke-dasharray:none;paint-order:stroke fill markers"
       d="m 132.55729,100.31363 c 1.43309,12.89776 2.86611,25.79497 -5.79196,31.58686 -8.65807,5.7919 -27.406786,4.4783 -46.156164,3.16465"
       id="path15947" />
    <path
       style="fill:none;fill-opacity:1;stroke:#000000;stroke-width:0.79375;stroke-linecap:round;stroke-miterlimit:0;stroke-dasharray:none;paint-order:stroke fill markers"
       d="m 140.44205,100.64444 c -1.43308,12.89775 -2.86611,25.79496 5.79196,31.58686 8.65807,5.7919 27.40678,4.4783 46.15616,3.16465"
       id="path15947-0" />
    <path
       style="fill:none;fill-opacity:1;stroke:#000000;stroke-width:0.79375;stroke-linecap:round;stroke-miterlimit:0;stroke-dasharray:none;paint-order:stroke fill markers"
       d="m 136.49819,151.9035 c -0.23885,21.61546 -0.47769,43.23066 -0.71653,64.84559"
       id="path16003" />
    <path
       style="fill:none;fill-opacity:1;stroke:#000000;stroke-width:0.79375;stroke-linecap:round;stroke-miterlimit:0;stroke-dasharray:none;paint-order:stroke fill markers"
       d="m 104.61279,174.47406 c 10.74818,1.31367 21.49607,2.6273 32.18432,2.68697 10.68826,0.0597 21.31651,-1.13452 31.94475,-2.3287"
       id="path16007" />
    <path
       style="fill:none;fill-opacity:1;stroke:#000000;stroke-width:0.79375;stroke-linecap:round;stroke-miterlimit:0;stroke-dasharray:none;paint-order:stroke fill markers"
       d="m 101.56755,195.70007 c 10.74818,1.31367 21.49607,2.6273 32.18432,2.68697 10.68826,0.0597 21.31651,-1.13452 31.94475,-2.3287"
       id="path16007-7" />
    <path
       style="fill:#a16215;fill-opacity:1;stroke:#000000;stroke-width:1.5875;stroke-linecap:round;stroke-miterlimit:0;stroke-dasharray:none;paint-order:stroke fill markers"
       d="m 180.20627,65.920386 c 0,0 0.55849,14.434493 3.58263,20.779251 2.731,5.729747 12.5392,14.330523 12.5392,14.330523 l 5.01568,-4.657423 c 0,0 -8.59351,-7.034937 -11.10615,-11.822679 -2.89532,-5.516934 -3.94089,-18.27141 -3.94089,-18.27141 z"
       id="path16145" />
    <path
       style="fill:#a16215;fill-opacity:1;stroke:#000000;stroke-width:1.5875;stroke-linecap:round;stroke-miterlimit:0;stroke-dasharray:none;paint-order:stroke fill markers"
       d="m 92.484442,63.8686 c 0,0 -0.55849,14.43449 -3.58263,20.77925 -2.731,5.72974 -12.5392,14.33052 -12.5392,14.33052 l -5.01568,-4.65742 c 0,0 8.59351,-7.03494 11.10615,-11.82268 2.89532,-5.51693 3.94089,-18.27141 3.94089,-18.27141 z"
       id="path16145-1" />
    <ellipse
       style="fill:#a16215;fill-opacity:1;stroke:#000000;stroke-width:1.5875;stroke-linecap:round;stroke-miterlimit:0;stroke-dasharray:none;paint-order:stroke fill markers"
       id="path16037"
       cx="64.754601"
       cy="79.249748"
       rx="41.200241"
       ry="16.121834"
       transform="rotate(-21.401075)" />
    <ellipse
       style="fill:#a16215;fill-opacity:1;stroke:#000000;stroke-width:1.5875;stroke-linecap:round;stroke-miterlimit:0;stroke-dasharray:none;paint-order:stroke fill markers"
       id="path16037-8"
       cx="-185.95207"
       cy="-19.39134"
       rx="41.200241"
       ry="16.121834"
       transform="matrix(-0.93104897,-0.36489425,-0.36489425,0.93104897,0,0)" />
  </g>
</svg>
