<?xml version="1.0" encoding="UTF-8" standalone="no"?>
<!-- Created with Inkscape (http://www.inkscape.org/) -->

<svg
   width="647.31006"
   height="793.34406"
   viewBox="0 0 171.26744 209.90561"
   version="1.1"
   id="svg7354"
   xmlns="http://www.w3.org/2000/svg"
   xmlns:svg="http://www.w3.org/2000/svg">
  <defs
     id="defs7351" />
  <g
     id="layer1"
     transform="translate(-49.073202,-27.231351)">
    <path
       style="fill:#d5d6dc;fill-opacity:1;stroke:#000000;stroke-width:3.175;stroke-linecap:round;stroke-miterlimit:0;paint-order:stroke fill markers"
       id="path3490-4-8-2-2"
       d="m 274.21376,152.77624 17.53669,-30.69085 17.53669,-30.690843 17.8107,30.532643 17.81071,30.53264 -35.34739,0.1582 z"
       transform="matrix(0.08824176,-0.1472134,-0.21303528,-0.13102321,186.69164,249.90591)" />
    <path
       style="fill:#d5d6dc;fill-opacity:1;stroke:#000000;stroke-width:3.175;stroke-linecap:round;stroke-miterlimit:0;paint-order:stroke fill markers"
       id="path3490-4-8-6-8"
       d="m 274.21376,152.77624 17.53669,-30.69085 17.53669,-30.690843 17.8107,30.532643 17.81071,30.53264 -35.34739,0.1582 z"
       transform="matrix(0.04400274,-0.16589802,-0.24099584,-0.06687386,210.55685,229.32805)" />
    <path
       style="fill:#d5d6dc;fill-opacity:1;stroke:#000000;stroke-width:3.175;stroke-linecap:round;stroke-miterlimit:0;paint-order:stroke fill markers"
       id="path3490-4-8-39-7"
       d="m 274.21376,152.77624 17.53669,-30.69085 17.53669,-30.690843 17.8107,30.532643 17.81071,30.53264 -35.34739,0.1582 z"
       transform="matrix(0.01619193,-0.17086901,-0.24870135,-0.02643381,224.32805,207.12262)" />
    <path
       style="fill:#d5d6dc;fill-opacity:1;stroke:#000000;stroke-width:3.175;stroke-linecap:round;stroke-miterlimit:0;paint-order:stroke fill markers"
       id="path3490-4-8-2"
       d="m 274.21376,152.77624 17.53669,-30.69085 17.53669,-30.690843 17.8107,30.532643 17.81071,30.53264 -35.34739,0.1582 z"
       transform="matrix(-0.08824176,-0.1472134,0.21303528,-0.13102321,83.319683,253.44949)" />
    <path
       style="fill:#d5d6dc;fill-opacity:1;stroke:#000000;stroke-width:3.175;stroke-linecap:round;stroke-miterlimit:0;paint-order:stroke fill markers"
       id="path3490-4-8-6"
       d="m 274.21376,152.77624 17.53669,-30.69085 17.53669,-30.690843 17.8107,30.532643 17.81071,30.53264 -35.34739,0.1582 z"
       transform="matrix(-0.04400274,-0.16589802,0.24099584,-0.06687386,59.454476,232.87163)" />
    <path
       style="fill:#d5d6dc;fill-opacity:1;stroke:#000000;stroke-width:3.175;stroke-linecap:round;stroke-miterlimit:0;paint-order:stroke fill markers"
       id="path3490-4-8-39"
       d="m 274.21376,152.77624 17.53669,-30.69085 17.53669,-30.690843 17.8107,30.532643 17.81071,30.53264 -35.34739,0.1582 z"
       transform="matrix(-0.01619193,-0.17086901,0.24870135,-0.02643381,45.683272,210.6662)" />
    <path
       style="fill:#d5d6dc;fill-opacity:1;stroke:#000000;stroke-width:3.175;stroke-linecap:round;stroke-miterlimit:0;paint-order:stroke fill markers"
       id="path3490-5"
       d="m 274.21376,152.77624 17.53669,-30.69085 17.53669,-30.690843 17.8107,30.532643 17.81071,30.53264 -35.34739,0.1582 z"
       transform="matrix(0.08722631,-0.07034113,0.10300814,0.12773493,31.073009,56.78394)" />
    <path
       style="fill:#d5d6dc;fill-opacity:1;stroke:#000000;stroke-width:3.175;stroke-linecap:round;stroke-miterlimit:0;paint-order:stroke fill markers"
       id="path3490-0"
       d="m 274.21376,152.77624 17.53669,-30.69085 17.53669,-30.690843 17.8107,30.532643 17.81071,30.53264 -35.34739,0.1582 z"
       transform="matrix(0.10345406,-0.04305301,0.06304718,0.15149898,41.698884,40.014926)" />
    <path
       style="fill:#d5d6dc;fill-opacity:1;stroke:#000000;stroke-width:3.175;stroke-linecap:round;stroke-miterlimit:0;paint-order:stroke fill markers"
       id="path3490-0-4"
       d="m 274.21376,152.77624 17.53669,-30.69085 17.53669,-30.690843 17.8107,30.532643 17.81071,30.53264 -35.34739,0.1582 z"
       transform="matrix(0.08463764,0.07343551,-0.10753957,0.12394405,188.71639,11.17962)" />
    <path
       style="fill:#d5d6dc;fill-opacity:1;stroke:#000000;stroke-width:3.175;stroke-linecap:round;stroke-miterlimit:0;paint-order:stroke fill markers"
       id="path3490-5-7"
       d="m 274.21376,152.77624 17.53669,-30.69085 17.53669,-30.690843 17.8107,30.532643 17.81071,30.53264 -35.34739,0.1582 z"
       transform="matrix(0.10183718,0.04674924,-0.06845997,0.14913122,167.67388,8.8790933)" />
    <path
       id="path7892"
       style="fill:#676974;fill-opacity:1;stroke:#000000;stroke-width:3.175;stroke-linecap:round;stroke-miterlimit:0;stroke-dasharray:none;paint-order:stroke fill markers"
       d="m 137.37648,34.751367 a 78.459595,37.25935 0 0 0 -78.459814,37.25974 78.459595,37.25935 0 0 0 18.940446,24.245032 63.054287,99.955376 0 0 0 -4.968172,38.809001 63.054287,99.955376 0 0 0 63.05455,99.95514 63.054287,99.955376 0 0 0 63.05403,-99.95514 63.054287,99.955376 0 0 0 -4.6023,-37.470065 78.459595,37.25935 0 0 0 21.44055,-25.583968 78.459595,37.25935 0 0 0 -78.45929,-37.25974 z" />
    <path
       style="fill:none;fill-opacity:1;stroke:#000000;stroke-width:0.79375;stroke-linecap:round;stroke-miterlimit:0;stroke-dasharray:none;paint-order:stroke fill markers"
       d="m 132.29817,93.576622 c 1.43309,12.897758 2.86611,25.794968 -5.79196,31.586858 -8.65807,5.7919 -27.406782,4.4783 -46.15616,3.16465"
       id="path15947" />
    <path
       style="fill:none;fill-opacity:1;stroke:#000000;stroke-width:0.79375;stroke-linecap:round;stroke-miterlimit:0;stroke-dasharray:none;paint-order:stroke fill markers"
       d="m 139.92382,93.648317 c -1.43308,12.897753 -2.86611,25.794963 5.79196,31.586863 8.65807,5.7919 27.40678,4.4783 46.15616,3.16465"
       id="path15947-0" />
    <path
       style="fill:none;fill-opacity:1;stroke:#000000;stroke-width:0.79375;stroke-linecap:round;stroke-miterlimit:0;stroke-dasharray:none;paint-order:stroke fill markers"
       d="m 136.49819,151.9035 c -0.23885,21.61546 -0.47769,43.23066 -0.71653,64.84559"
       id="path16003" />
    <path
       style="fill:none;fill-opacity:1;stroke:#000000;stroke-width:0.79375;stroke-linecap:round;stroke-miterlimit:0;stroke-dasharray:none;paint-order:stroke fill markers"
       d="m 104.61279,174.47406 c 10.74818,1.31367 21.49607,2.6273 32.18432,2.68697 10.68826,0.0597 21.31651,-1.13452 31.94475,-2.3287"
       id="path16007" />
    <path
       style="fill:none;fill-opacity:1;stroke:#000000;stroke-width:0.79375;stroke-linecap:round;stroke-miterlimit:0;stroke-dasharray:none;paint-order:stroke fill markers"
       d="m 101.56755,195.70007 c 10.74818,1.31367 21.49607,2.6273 32.18432,2.68697 10.68826,0.0597 21.31651,-1.13452 31.94475,-2.3287"
       id="path16007-7" />
    <path
       style="fill:#d5d6dc;fill-opacity:1;stroke:#000000;stroke-width:3.175;stroke-linecap:round;stroke-miterlimit:0;paint-order:stroke fill markers"
       id="path3490"
       d="m 274.21376,152.77624 17.53669,-30.69085 17.53669,-30.690843 17.8107,30.532643 17.81071,30.53264 -35.34739,0.1582 z"
       transform="matrix(0.08722631,-0.07034113,0.10300814,0.12773493,25.716082,60.295529)" />
    <path
       style="fill:#d5d6dc;fill-opacity:1;stroke:#000000;stroke-width:3.175;stroke-linecap:round;stroke-miterlimit:0;paint-order:stroke fill markers"
       id="path3490-36"
       d="m 274.21376,152.77624 17.53669,-30.69085 17.53669,-30.690843 17.8107,30.532643 17.81071,30.53264 -35.34739,0.1582 z"
       transform="matrix(0.10627016,-0.03553812,0.05204232,0.1556229,47.464656,32.739105)" />
    <path
       style="fill:#d5d6dc;fill-opacity:1;stroke:#000000;stroke-width:3.175;stroke-linecap:round;stroke-miterlimit:0;paint-order:stroke fill markers"
       id="path3490-4"
       d="m 274.21376,152.77624 17.53669,-30.69085 17.53669,-30.690843 17.8107,30.532643 17.81071,30.53264 -35.34739,0.1582 z"
       transform="matrix(0.09392415,-0.06111102,0.08949149,0.13754331,35.192233,49.003113)" />
    <path
       style="fill:#d5d6dc;fill-opacity:1;stroke:#000000;stroke-width:3.175;stroke-linecap:round;stroke-miterlimit:0;paint-order:stroke fill markers"
       id="path3490-4-8"
       d="m 274.21376,152.77624 17.53669,-30.69085 17.53669,-30.690843 17.8107,30.532643 17.81071,30.53264 -35.34739,0.1582 z"
       transform="matrix(-0.0276721,-0.16938905,0.24635407,-0.04313678,48.87659,202.25206)" />
    <path
       style="fill:#d5d6dc;fill-opacity:1;stroke:#000000;stroke-width:3.175;stroke-linecap:round;stroke-miterlimit:0;paint-order:stroke fill markers"
       id="path3490-4-8-8"
       d="m 274.21376,152.77624 17.53669,-30.69085 17.53669,-30.690843 17.8107,30.532643 17.81071,30.53264 -35.34739,0.1582 z"
       transform="matrix(-0.0852874,-0.14894447,0.2156067,-0.12674723,77.919579,244.60994)" />
    <path
       style="fill:#d5d6dc;fill-opacity:1;stroke:#000000;stroke-width:3.175;stroke-linecap:round;stroke-miterlimit:0;paint-order:stroke fill markers"
       id="path3490-4-8-87"
       d="m 274.21376,152.77624 17.53669,-30.69085 17.53669,-30.690843 17.8107,30.532643 17.81071,30.53264 -35.34739,0.1582 z"
       transform="matrix(-0.04852235,-0.16463285,0.23907724,-0.07343828,59.293008,225.3154)" />
    <path
       style="fill:#d5d6dc;fill-opacity:1;stroke:#000000;stroke-width:3.175;stroke-linecap:round;stroke-miterlimit:0;paint-order:stroke fill markers"
       id="path3490-4-8-3"
       d="m 274.21376,152.77624 17.53669,-30.69085 17.53669,-30.690843 17.8107,30.532643 17.81071,30.53264 -35.34739,0.1582 z"
       transform="matrix(-0.09836362,-0.14065203,0.20330651,-0.14566252,91.625072,260.35053)" />
    <path
       style="fill:#d5d6dc;fill-opacity:1;stroke:#000000;stroke-width:3.175;stroke-linecap:round;stroke-miterlimit:0;paint-order:stroke fill markers"
       id="path3490-4-8-9"
       d="m 274.21376,152.77624 17.53669,-30.69085 17.53669,-30.690843 17.8107,30.532643 17.81071,30.53264 -35.34739,0.1582 z"
       transform="matrix(0.0276721,-0.16938905,-0.24635407,-0.04313678,221.13473,198.70848)" />
    <path
       style="fill:#d5d6dc;fill-opacity:1;stroke:#000000;stroke-width:3.175;stroke-linecap:round;stroke-miterlimit:0;paint-order:stroke fill markers"
       id="path3490-4-8-8-5"
       d="m 274.21376,152.77624 17.53669,-30.69085 17.53669,-30.690843 17.8107,30.532643 17.81071,30.53264 -35.34739,0.1582 z"
       transform="matrix(0.0852874,-0.14894447,-0.2156067,-0.12674723,192.09174,241.06636)" />
    <path
       style="fill:#d5d6dc;fill-opacity:1;stroke:#000000;stroke-width:3.175;stroke-linecap:round;stroke-miterlimit:0;paint-order:stroke fill markers"
       id="path3490-4-8-87-5"
       d="m 274.21376,152.77624 17.53669,-30.69085 17.53669,-30.690843 17.8107,30.532643 17.81071,30.53264 -35.34739,0.1582 z"
       transform="matrix(0.04852235,-0.16463285,-0.23907724,-0.07343828,210.71832,221.77182)" />
    <path
       style="fill:#d5d6dc;fill-opacity:1;stroke:#000000;stroke-width:3.175;stroke-linecap:round;stroke-miterlimit:0;paint-order:stroke fill markers"
       id="path3490-4-8-3-4"
       d="m 274.21376,152.77624 17.53669,-30.69085 17.53669,-30.690843 17.8107,30.532643 17.81071,30.53264 -35.34739,0.1582 z"
       transform="matrix(0.09836362,-0.14065203,-0.20330651,-0.14566252,178.38625,256.80695)" />
    <path
       style="fill:#d5d6dc;fill-opacity:1;stroke:#000000;stroke-width:3.175;stroke-linecap:round;stroke-miterlimit:0;paint-order:stroke fill markers"
       id="path3490-3"
       d="m 274.21376,152.77624 17.53669,-30.69085 17.53669,-30.690843 17.8107,30.532643 17.81071,30.53264 -35.34739,0.1582 z"
       transform="matrix(0.10183718,0.04674924,-0.06845997,0.14913122,161.8842,7.461678)" />
    <path
       style="fill:#d5d6dc;fill-opacity:1;stroke:#000000;stroke-width:3.175;stroke-linecap:round;stroke-miterlimit:0;paint-order:stroke fill markers"
       id="path3490-36-4"
       d="m 274.21376,152.77624 17.53669,-30.69085 17.53669,-30.690843 17.8107,30.532643 17.81071,30.53264 -35.34739,0.1582 z"
       transform="matrix(0.07916461,0.07930492,-0.11613477,0.11592931,196.24438,15.172632)" />
    <path
       style="fill:#d5d6dc;fill-opacity:1;stroke:#000000;stroke-width:3.175;stroke-linecap:round;stroke-miterlimit:0;paint-order:stroke fill markers"
       id="path3490-4-7"
       d="m 274.21376,152.77624 17.53669,-30.69085 17.53669,-30.690843 17.8107,30.532643 17.81071,30.53264 -35.34739,0.1582 z"
       transform="matrix(0.09655811,0.05685802,-0.08326336,0.1414005,176.21592,10.913903)" />
    <path
       style="fill:none;fill-opacity:1;stroke:#000000;stroke-width:0.79375;stroke-linecap:round;stroke-miterlimit:0;stroke-dasharray:none;paint-order:stroke fill markers"
       d="m 118.52714,60.927326 c -5.09596,5.700563 -10.1919,11.401107 -15.54695,15.719697 -5.355059,4.31859 -10.969122,7.255176 -16.583393,10.191871"
       id="path3709" />
    <path
       style="fill:none;fill-opacity:1;stroke:#000000;stroke-width:0.79375;stroke-linecap:round;stroke-miterlimit:0;stroke-dasharray:none;paint-order:stroke fill markers"
       d="m 89.247068,79.324539 c 2.332254,3.282431 4.664295,6.564564 6.996123,9.846395"
       id="path3767" />
    <path
       style="fill:none;fill-opacity:1;stroke:#000000;stroke-width:0.79375;stroke-linecap:round;stroke-miterlimit:0;stroke-dasharray:none;paint-order:stroke fill markers"
       d="m 98.316116,74.660457 c 2.245904,2.677814 4.491574,5.355344 6.737004,8.032585"
       id="path3771" />
    <path
       style="fill:none;fill-opacity:1;stroke:#000000;stroke-width:0.79375;stroke-linecap:round;stroke-miterlimit:0;stroke-dasharray:none;paint-order:stroke fill markers"
       d="m 105.57136,69.478143 c 2.15952,2.850567 4.31882,5.700842 6.47789,8.550817"
       id="path3775" />
    <path
       style="fill:none;fill-opacity:1;stroke:#000000;stroke-width:0.79375;stroke-linecap:round;stroke-miterlimit:0;stroke-dasharray:none;paint-order:stroke fill markers"
       d="m 110.75367,63.777597 c 2.24593,2.245932 4.4916,4.491601 6.73701,6.737008"
       id="path3779" />
  </g>
</svg>
