<?xml version="1.0" encoding="UTF-8" standalone="no"?>
<!-- Created with Inkscape (http://www.inkscape.org/) -->

<svg
   width="1000"
   height="1000"
   viewBox="0 0 264.58333 264.58333"
   version="1.1"
   id="svg17395"
   inkscape:version="1.2.1 (9c6d41e410, 2022-07-14)"
   sodipodi:docname="Leg_Basic.svg"
   xmlns:inkscape="http://www.inkscape.org/namespaces/inkscape"
   xmlns:sodipodi="http://sodipodi.sourceforge.net/DTD/sodipodi-0.dtd"
   xmlns="http://www.w3.org/2000/svg"
   xmlns:svg="http://www.w3.org/2000/svg">
  <sodipodi:namedview
     id="namedview17397"
     pagecolor="#ffffff"
     bordercolor="#000000"
     borderopacity="0.25"
     inkscape:showpageshadow="2"
     inkscape:pageopacity="0.0"
     inkscape:pagecheckerboard="0"
     inkscape:deskcolor="#d1d1d1"
     inkscape:document-units="px"
     showgrid="false"
     inkscape:zoom="0.73851712"
     inkscape:cx="396.74097"
     inkscape:cy="519.96087"
     inkscape:window-width="1920"
     inkscape:window-height="1009"
     inkscape:window-x="-8"
     inkscape:window-y="-8"
     inkscape:window-maximized="1"
     inkscape:current-layer="layer1" />
  <defs
     id="defs17392">
    <inkscape:path-effect
       effect="bspline"
       id="path-effect18325"
       is_visible="true"
       lpeversion="1"
       weight="33.333333"
       steps="2"
       helper_size="0"
       apply_no_weight="true"
       apply_with_weight="true"
       only_selected="false" />
  </defs>
  <g
     inkscape:label="Ebene 1"
     inkscape:groupmode="layer"
     id="layer1">
    <path
       id="path17935"
       style="fill:#438141;fill-opacity:1;stroke:#000000;stroke-width:3.175;stroke-linecap:round;stroke-miterlimit:0;stroke-dasharray:none;paint-order:stroke fill markers"
       d="m 86.410332,12.42884 a 68.249092,36.542824 56.694501 0 0 -9.62954,3.298214 68.249092,36.542824 56.694501 0 0 6.935181,77.105145 68.249092,36.542824 56.694501 0 0 35.934337,34.691891 63.19376,32.746485 82.865414 0 0 -5.86803,50.16143 63.19376,32.746485 82.865414 0 0 40.36786,58.56557 63.19376,32.746485 82.865414 0 0 24.60114,-66.834 A 63.19376,32.746485 82.865414 0 0 159.33213,120.81513 68.249092,36.542824 56.694501 0 0 144.7975,52.700849 68.249092,36.542824 56.694501 0 0 86.410332,12.42884 Z" />
  </g>
</svg>
