<?xml version="1.0" encoding="UTF-8" standalone="no"?>
<!-- Created with Inkscape (http://www.inkscape.org/) -->

<svg
   width="1000"
   height="1000"
   viewBox="0 0 264.58333 264.58333"
   version="1.1"
   id="svg25057"
   inkscape:version="1.2.1 (9c6d41e410, 2022-07-14)"
   sodipodi:docname="Foot_Spike.svg"
   xmlns:inkscape="http://www.inkscape.org/namespaces/inkscape"
   xmlns:sodipodi="http://sodipodi.sourceforge.net/DTD/sodipodi-0.dtd"
   xmlns="http://www.w3.org/2000/svg"
   xmlns:svg="http://www.w3.org/2000/svg">
  <sodipodi:namedview
     id="namedview25059"
     pagecolor="#ffffff"
     bordercolor="#000000"
     borderopacity="0.25"
     inkscape:showpageshadow="2"
     inkscape:pageopacity="0.0"
     inkscape:pagecheckerboard="0"
     inkscape:deskcolor="#d1d1d1"
     inkscape:document-units="px"
     showgrid="false"
     inkscape:zoom="0.73851712"
     inkscape:cx="396.74097"
     inkscape:cy="561.93687"
     inkscape:window-width="1920"
     inkscape:window-height="1009"
     inkscape:window-x="-8"
     inkscape:window-y="-8"
     inkscape:window-maximized="1"
     inkscape:current-layer="layer1" />
  <defs
     id="defs25054" />
  <g
     inkscape:label="Ebene 1"
     inkscape:groupmode="layer"
     id="layer1">
    <path
       id="path27364"
       style="fill:#676974;fill-opacity:1;stroke:#000000;stroke-width:3.17499996;stroke-linecap:round;stroke-miterlimit:0;stroke-dasharray:none;paint-order:stroke fill markers"
       d="M 36.901106 109.27033 C 36.901106 109.27033 10.99996 144.6963 11.464416 165.15943 C 11.601363 171.19306 14.540869 178.15631 19.704223 181.28092 C 30.023857 187.52588 43.900836 182.25543 55.889094 180.9228 C 75.67651 178.72322 89.36204 176.4644 109.27033 176.26521 C 133.11148 176.02666 179.73376 190.29787 200.98566 179.48982 C 204.17205 177.86932 205.4646 177.09469 205.55851 175.25183 C 211.58918 176.6984 215.96021 184.54319 222.12287 183.78878 C 229.34871 182.90422 236.35366 176.38194 238.603 169.45839 C 240.0799 164.91246 235.37891 155.48611 235.37891 155.48611 C 235.37891 155.48611 224.13999 148.62214 217.82391 147.24631 C 211.11458 145.78482 200.32771 146.10385 192.27147 146.64944 C 179.61887 140.10097 156.77916 141.29343 143.30495 138.28975 C 123.95904 133.97714 102.72233 138.72832 88.490722 122.88397 C 83.218447 117.01423 80.609032 110.70332 80.609032 110.70332 L 36.901106 109.27033 z " />
    <path
       style="fill:#000000;fill-opacity:1;stroke:#000000;stroke-width:1.5875;stroke-linecap:round;stroke-miterlimit:0;stroke-dasharray:none;paint-order:stroke fill markers"
       d="m 216.39083,146.52954 17.19662,15.04705 3.9409,-1.79132 c 0,0 -0.86028,-4.83472 -2.50784,-6.44873 -4.72284,-4.62665 -18.62968,-6.807 -18.62968,-6.807 z"
       id="path27366"
       sodipodi:nodetypes="cccsc" />
  </g>
</svg>
