<?xml version="1.0" encoding="UTF-8" standalone="no"?>
<!-- Created with Inkscape (http://www.inkscape.org/) -->

<svg
   width="711.51807"
   height="711.51801"
   viewBox="0 0 188.25582 188.2558"
   version="1.1"
   id="svg5"
   xmlns="http://www.w3.org/2000/svg"
   xmlns:svg="http://www.w3.org/2000/svg">
  <defs
     id="defs2" />
  <g
     id="layer1"
     transform="translate(-38.163802,-38.163803)">
    <circle
       style="opacity:1;fill:#918a6f;fill-opacity:1;stroke:#000000;stroke-width:3.175;stroke-linecap:round;stroke-miterlimit:0;stroke-dasharray:none;stroke-opacity:1;paint-order:stroke fill markers"
       id="path234"
       cx="132.29167"
       cy="132.29167"
       r="92.098701" />
    <path
       style="fill:none;fill-opacity:1;stroke:#000000;stroke-width:0.79375;stroke-linecap:round;stroke-miterlimit:0;stroke-dasharray:none;paint-order:stroke fill markers"
       d="m 106.4263,205.38046 c 8.11401,-3.70422 16.2279,-7.40838 24.78295,-7.32005 8.55506,0.0883 17.5507,3.9688 26.54622,7.84922"
       id="path27320" />
    <path
       style="fill:#694121;fill-opacity:1;stroke:#000000;stroke-width:1.5875;stroke-linecap:round;stroke-miterlimit:0;stroke-dasharray:none;stroke-opacity:1;paint-order:stroke fill markers"
       d="m 106.4263,69.384636 8.99583,28.575 4.7625,-16.933333 8.99584,34.395837 3.175,-11.64167 3.175,4.7625 5.29166,-28.575001 3.70417,8.995834 6.87917,-28.575 -2.11667,-19.579166 -15.34583,-1.5875 -16.93334,1.058333 -13.75833,3.704167 z"
       id="path27324" />
    <path
       style="fill:none;fill-opacity:1;stroke:#684121;stroke-width:0.79375;stroke-linecap:round;stroke-miterlimit:0;stroke-dasharray:none;stroke-opacity:1;paint-order:stroke fill markers"
       d="m 61.976302,113.83464 c -1.940155,-5.11496 -3.880433,-10.23024 -6.438006,-13.58172 -2.557573,-3.35149 -5.73251,-4.938958 -8.907827,-6.526617"
       id="path27326" />
    <path
       style="fill:none;fill-opacity:1;stroke:#684121;stroke-width:0.79375;stroke-linecap:round;stroke-miterlimit:0;stroke-dasharray:none;stroke-opacity:1;paint-order:stroke fill markers"
       d="M 72.559635,102.72214 C 69.737586,97.607174 66.915364,92.491895 63.740401,89.316781 60.565438,86.141667 57.037732,84.90697 53.509635,83.672136"
       id="path27330" />
    <path
       style="fill:none;fill-opacity:1;stroke:#684121;stroke-width:0.79375;stroke-linecap:round;stroke-miterlimit:0;stroke-dasharray:none;stroke-opacity:1;paint-order:stroke fill markers"
       d="M 66.738802,108.54297 C 64.269513,103.42801 61.800066,98.312731 59.066088,94.873063 56.33211,91.433395 53.333559,89.669542 50.334636,87.905469"
       id="path27334" />
    <path
       style="fill:none;fill-opacity:1;stroke:#684121;stroke-width:0.79375;stroke-linecap:round;stroke-miterlimit:0;stroke-dasharray:none;stroke-opacity:1;paint-order:stroke fill markers"
       d="m 200.35338,112.51172 c 1.94015,-5.11496 3.88043,-10.23024 6.438,-13.581723 2.55758,-3.351487 5.73252,-4.938957 8.90783,-6.526613"
       id="path27326-6" />
    <path
       style="fill:none;fill-opacity:1;stroke:#684121;stroke-width:0.79375;stroke-linecap:round;stroke-miterlimit:0;stroke-dasharray:none;stroke-opacity:1;paint-order:stroke fill markers"
       d="m 189.77005,101.39922 c 2.82205,-5.114963 5.64427,-10.230243 8.81923,-13.405358 3.17496,-3.175116 6.70267,-4.409811 10.23077,-5.644648"
       id="path27330-7" />
    <path
       style="fill:none;fill-opacity:1;stroke:#684121;stroke-width:0.79375;stroke-linecap:round;stroke-miterlimit:0;stroke-dasharray:none;stroke-opacity:1;paint-order:stroke fill markers"
       d="m 195.59088,107.22005 c 2.46929,-5.11496 4.93873,-10.230241 7.67271,-13.669909 2.73398,-3.439668 5.73253,-5.203519 8.73145,-6.967587"
       id="path27334-0" />
    <path
       style="fill:#7b755e;fill-opacity:1;stroke:#000000;stroke-width:1.5875;stroke-linecap:round;stroke-miterlimit:0;stroke-dasharray:none;stroke-opacity:1;paint-order:stroke fill markers"
       d="m 165.1638,107.48463 c -4.93863,0 -9.87741,1e-5 -13.14082,1.14658 -3.26341,1.14658 -4.85088,3.43959 -6.17381,7.32028 -1.32293,3.88068 -2.38125,9.34863 -2.55759,14.81679 -0.17634,5.46815 0.5292,10.93609 1.23472,16.40386"
       id="path28966" />
    <path
       style="fill:none;fill-opacity:1;stroke:#000000;stroke-width:0.79375;stroke-linecap:round;stroke-miterlimit:0;stroke-dasharray:none;stroke-opacity:1;paint-order:stroke fill markers"
       d="m 97.593114,109.33678 c 4.938626,0 9.877406,10e-6 13.140816,1.14658 3.26341,1.14658 4.85088,3.43959 6.17381,7.32028 1.32293,3.88068 2.38125,9.34863 2.55759,14.81679 0.17634,5.46815 -0.5292,10.93609 -1.23472,16.40386"
       id="path28966-6" />
  </g>
</svg>
