<?xml version="1.0" encoding="UTF-8" standalone="no"?>
<!-- Created with Inkscape (http://www.inkscape.org/) -->

<svg
   width="1000"
   height="1000"
   viewBox="0 0 264.58334 264.58332"
   version="1.1"
   id="svg5"
   sodipodi:docname="Head_Spike.svg"
   inkscape:version="1.2.1 (9c6d41e410, 2022-07-14)"
   xmlns:inkscape="http://www.inkscape.org/namespaces/inkscape"
   xmlns:sodipodi="http://sodipodi.sourceforge.net/DTD/sodipodi-0.dtd"
   xmlns="http://www.w3.org/2000/svg"
   xmlns:svg="http://www.w3.org/2000/svg">
  <sodipodi:namedview
     id="namedview10119"
     pagecolor="#ffffff"
     bordercolor="#000000"
     borderopacity="0.25"
     inkscape:showpageshadow="2"
     inkscape:pageopacity="0.0"
     inkscape:pagecheckerboard="0"
     inkscape:deskcolor="#d1d1d1"
     showgrid="false"
     inkscape:zoom="0.70710678"
     inkscape:cx="695.79307"
     inkscape:cy="538.81537"
     inkscape:window-width="1920"
     inkscape:window-height="1009"
     inkscape:window-x="-8"
     inkscape:window-y="-8"
     inkscape:window-maximized="1"
     inkscape:current-layer="layer1" />
  <defs
     id="defs2">
    <inkscape:path-effect
       effect="bspline"
       id="path-effect8473"
       is_visible="true"
       lpeversion="1"
       weight="33.333333"
       steps="2"
       helper_size="0"
       apply_no_weight="true"
       apply_with_weight="true"
       only_selected="false" />
    <inkscape:path-effect
       effect="bspline"
       id="path-effect7595"
       is_visible="true"
       lpeversion="1"
       weight="33.333333"
       steps="2"
       helper_size="0"
       apply_no_weight="true"
       apply_with_weight="true"
       only_selected="false" />
    <inkscape:path-effect
       effect="bspline"
       id="path-effect7537"
       is_visible="true"
       lpeversion="1"
       weight="33.333333"
       steps="2"
       helper_size="0"
       apply_no_weight="true"
       apply_with_weight="true"
       only_selected="false" />
    <inkscape:path-effect
       effect="bspline"
       id="path-effect7502"
       is_visible="true"
       lpeversion="1"
       weight="33.333333"
       steps="2"
       helper_size="0"
       apply_no_weight="true"
       apply_with_weight="true"
       only_selected="false" />
    <inkscape:path-effect
       effect="bspline"
       id="path-effect7502-0"
       is_visible="true"
       lpeversion="1"
       weight="33.333333"
       steps="2"
       helper_size="0"
       apply_no_weight="true"
       apply_with_weight="true"
       only_selected="false" />
  </defs>
  <g
     id="layer1"
     transform="translate(-38.692969,-38.69297)">
    <circle
       style="opacity:1;fill:#676974;fill-opacity:1;stroke:#000000;stroke-width:3.175;stroke-linecap:round;stroke-miterlimit:0;stroke-dasharray:none;stroke-opacity:1;paint-order:stroke fill markers"
       id="path234"
       cx="172.06667"
       cy="172.06667"
       r="92.098701" />
    <ellipse
       style="opacity:1;fill:#ffffff;fill-opacity:1;stroke:#000000;stroke-width:2.87979;stroke-linecap:round;stroke-miterlimit:0;stroke-dasharray:none;stroke-opacity:1;paint-order:stroke fill markers"
       id="path950"
       cx="136.3479"
       cy="158.83749"
       rx="21.049685"
       ry="17.080938" />
    <ellipse
       style="fill:#ffffff;fill-opacity:1;stroke:#000000;stroke-width:2.87979;stroke-linecap:round;stroke-miterlimit:0;stroke-dasharray:none;stroke-opacity:1;paint-order:stroke fill markers"
       id="path950-0"
       cx="207.78542"
       cy="158.83749"
       rx="21.049686"
       ry="17.080938" />
    <ellipse
       style="opacity:1;mix-blend-mode:normal;fill:#3bdd59;fill-opacity:1;stroke:#000000;stroke-width:3;stroke-linecap:round;stroke-miterlimit:0;stroke-dasharray:none;stroke-opacity:1;paint-order:stroke fill markers"
       id="path1243"
       cx="139.9095"
       cy="163.01746"
       rx="9.1357059"
       ry="8.9565744" />
    <ellipse
       style="mix-blend-mode:normal;fill:#3cdd59;fill-opacity:1;stroke:#000000;stroke-width:3;stroke-linecap:round;stroke-miterlimit:0;stroke-dasharray:none;stroke-opacity:1;paint-order:stroke fill markers"
       id="path1243-7"
       cx="203.50117"
       cy="161.22615"
       rx="9.1357059"
       ry="8.9565744" />
    <ellipse
       style="fill:#000000;fill-opacity:1;stroke:#000000;stroke-width:3;stroke-linecap:round;stroke-miterlimit:0;stroke-dasharray:none;stroke-opacity:1;paint-order:stroke fill markers"
       id="path2461"
       cx="141.70081"
       cy="164.80878"
       rx="4.1200242"
       ry="4.2991557" />
    <ellipse
       style="fill:#ffffff;fill-opacity:1;stroke:#ffffff;stroke-width:2.52644;stroke-linecap:round;stroke-miterlimit:0;stroke-dasharray:none;stroke-opacity:1;paint-order:stroke fill markers"
       id="path3139"
       cx="140.87619"
       cy="163.08852"
       rx="1.382611"
       ry="1.3826115" />
    <ellipse
       style="fill:#000000;fill-opacity:1;stroke:#000000;stroke-width:3;stroke-linecap:round;stroke-miterlimit:0;stroke-dasharray:none;stroke-opacity:1;paint-order:stroke fill markers"
       id="path2461-6"
       cx="202.06812"
       cy="163.01746"
       rx="4.1200242"
       ry="4.2991557" />
    <ellipse
       style="fill:#ffffff;fill-opacity:1;stroke:#ffffff;stroke-width:2.52644;stroke-linecap:round;stroke-miterlimit:0;stroke-dasharray:none;stroke-opacity:1;paint-order:stroke fill markers"
       id="path3139-8"
       cx="203.39308"
       cy="162.01372"
       rx="1.382611"
       ry="1.3826115" />
    <path
       style="opacity:1;fill:#000000;fill-opacity:1;stroke:#000000;stroke-width:3;stroke-linecap:round;stroke-miterlimit:0;stroke-dasharray:none;stroke-opacity:1;paint-order:stroke fill markers"
       d="m 116.80154,140.08863 42.27503,12.5392 10.38963,-7.16526 -49.08203,-7.88178 z"
       id="path6340" />
    <path
       style="fill:#000000;fill-opacity:1;stroke:#000000;stroke-width:3;stroke-linecap:round;stroke-miterlimit:0;stroke-dasharray:none;stroke-opacity:1;paint-order:stroke fill markers"
       d="m 228.75442,140.11011 -42.27503,12.5392 -10.38963,-7.16526 49.08203,-7.88179 z"
       id="path6340-0" />
    <path
       style="fill:#704349;fill-opacity:1;stroke:#000000;stroke-width:3.17499996;stroke-linecap:round;stroke-miterlimit:0;paint-order:stroke fill markers;stroke-dasharray:none"
       d="m 124.044,112.905 c 0,0 -8.58287,-6.2564 -11.79609,-17.110755 -2.79101,-9.428113 -2.53435,-20.770333 1.48865,-29.660262 3.68368,-8.140108 10.70617,-16.455778 18.98046,-17.796157 5.0981,-0.825857 10.61484,2.706211 14.14231,6.779489 2.94657,3.402503 4.5916,8.471085 4.46599,13.135258 -0.0996,3.696694 -4.09384,10.169232 -4.09384,10.169232 0,0 -0.84962,-6.435618 -2.60515,-8.898077 -2.68964,-3.772729 -6.86003,-8.609418 -11.16497,-7.626925 -3.69157,0.842506 -5.45707,6.191161 -6.32683,10.169233 -1.12095,5.126966 -0.90115,11.341342 1.86084,15.677565 4.87311,7.650614 22.7021,13.135259 22.7021,13.135259 z"
       id="path7265"
       sodipodi:nodetypes="cssssscsssscc" />
    <path
       style="fill:#704349;fill-opacity:1;stroke:#000000;stroke-width:3.17499996;stroke-linecap:round;stroke-miterlimit:0;paint-order:stroke fill markers;stroke-dasharray:none"
       d="m 216.5129,112.5967 c 0,0 8.58287,-6.2564 11.79609,-17.110764 2.79101,-9.42811 2.53435,-20.77033 -1.48865,-29.66026 -3.68368,-8.14011 -10.70617,-16.455778 -18.98046,-17.796157 -5.0981,-0.825857 -10.61484,2.706211 -14.14231,6.779487 -2.94657,3.40251 -4.5916,8.47109 -4.46599,13.13526 0.0996,3.69669 4.09384,10.16923 4.09384,10.16923 0,0 0.84962,-6.43562 2.60515,-8.89808 2.68964,-3.77272 6.86003,-8.60941 11.16497,-7.62692 3.69157,0.84251 5.45707,6.19116 6.32683,10.16923 1.12095,5.12697 0.90115,11.34134 -1.86084,15.67757 -4.87311,7.65061 -22.7021,13.135264 -22.7021,13.135264 z"
       id="path7265-9"
       sodipodi:nodetypes="cssssscsssscc" />
    <path
       style="fill:#704349;fill-opacity:1;stroke:#000000;stroke-width:0.79375;stroke-linecap:round;stroke-miterlimit:0;paint-order:stroke fill markers"
       d="m 225.78164,199.9634 15.34127,11.5995 -17.96051,-4.86431 z"
       id="path7498" />
    <path
       style="fill:none;fill-opacity:1;stroke:#000000;stroke-width:1.5875;stroke-linecap:round;stroke-miterlimit:0;stroke-dasharray:none;paint-order:stroke fill markers"
       d="m 228.77506,195.84745 c -1.99564,2.36982 -3.99125,4.73961 -5.11378,7.60844 -1.12253,2.86884 -1.37198,6.23637 -1.62141,9.60372"
       id="path7500"
       inkscape:path-effect="#path-effect7502"
       inkscape:original-d="m 228.77506,195.84745 c -1.99535,2.37006 -3.99096,4.73985 -5.98684,7.10937 -0.24919,3.36793 -0.49864,6.73546 -0.74835,10.10279" />
    <path
       style="fill:#704349;fill-opacity:1;stroke:#000000;stroke-width:0.79375;stroke-linecap:round;stroke-miterlimit:0;paint-order:stroke fill markers"
       d="m 127.28289,204.8277 -15.34127,11.5995 17.96051,-4.86431 z"
       id="path7498-3" />
    <path
       style="fill:none;fill-opacity:1;stroke:#000000;stroke-width:1.5875;stroke-linecap:round;stroke-miterlimit:0;stroke-dasharray:none;paint-order:stroke fill markers"
       d="m 124.28947,200.71175 c 1.99564,2.36982 3.99125,4.73961 5.11378,7.60844 1.12253,2.86884 1.37198,6.23637 1.62141,9.60372"
       id="path7500-0"
       inkscape:path-effect="#path-effect7502-0"
       inkscape:original-d="m 124.28947,200.71175 c 1.99535,2.37006 3.99096,4.73985 5.98684,7.10937 0.24919,3.36793 0.49864,6.73546 0.74835,10.10279" />
    <path
       style="fill:#ffffff;fill-opacity:1;stroke:#000000;stroke-width:2.7218;stroke-linecap:round;stroke-miterlimit:0;stroke-dasharray:none;paint-order:stroke fill markers"
       d="m 137.09945,219.89759 c -2.68772,-2.75644 6.46989,-12.17443 17.61865,-17.11317 11.14875,-4.93874 24.28767,-5.39814 35.2371,-0.6888 10.94942,4.70935 19.70871,14.58657 15.82655,17.57255 -3.88217,2.98597 -20.40536,-0.91897 -35.93375,-0.91903 -15.52839,-6e-5 -30.06084,3.90489 -32.74855,1.14845 z"
       id="path7535" />
    <path
       style="fill:#ffffff;fill-opacity:1;stroke:#000000;stroke-width:0.707484;stroke-linecap:round;stroke-miterlimit:0;stroke-dasharray:none;paint-order:stroke fill markers"
       d="m 172.29206,198.67026 0.46043,20.29184"
       id="path7651" />
    <path
       style="fill:#ffffff;fill-opacity:1;stroke:#000000;stroke-width:0.70857;stroke-linecap:round;stroke-miterlimit:0;stroke-dasharray:none;paint-order:stroke fill markers"
       d="m 162.27498,200.16751 -0.45935,19.91658"
       id="path7653" />
    <path
       style="fill:#ffffff;fill-opacity:1;stroke:#000000;stroke-width:0.679048;stroke-linecap:round;stroke-miterlimit:0;stroke-dasharray:none;paint-order:stroke fill markers"
       d="m 184.99986,200.15275 0.86305,19.9461"
       id="path7655" />
    <path
       style="fill:#ffffff;fill-opacity:1;stroke:#000000;stroke-width:0.631968;stroke-linecap:round;stroke-miterlimit:0;stroke-dasharray:none;paint-order:stroke fill markers"
       d="m 193.95657,203.49681 1.28433,16.99976"
       id="path7657" />
    <path
       style="fill:#ffffff;fill-opacity:1;stroke:#000000;stroke-width:0.671556;stroke-linecap:round;stroke-miterlimit:0;stroke-dasharray:none;paint-order:stroke fill markers"
       d="m 150.94597,203.89078 0.4964,16.96018"
       id="path7659" />
    <path
       style="fill:none;fill-opacity:1;stroke:#000000;stroke-width:0.74338;stroke-linecap:round;stroke-miterlimit:0;stroke-dasharray:none;paint-order:stroke fill markers"
       d="m 136.8895,219.29919 c 11.64411,-3.61773 23.28806,-7.23538 35.04112,-7.19079 11.75305,0.0446 23.61456,3.75117 35.47604,7.45774"
       id="path7593"
       sodipodi:nodetypes="ccc" />
    <path
       style="fill:none;fill-opacity:1;stroke:#000000;stroke-width:0.79375;stroke-linecap:round;stroke-miterlimit:0;stroke-dasharray:none;paint-order:stroke fill markers"
       d="m 172.27428,129.61806 c -0.24947,4.24092 -0.49892,8.4816 -0.43652,11.72452 0.0624,3.24293 0.43657,5.48794 0.8107,7.7327"
       id="path8471"
       inkscape:path-effect="#path-effect8473"
       inkscape:original-d="m 172.27428,129.61806 c -0.24919,4.24094 -0.49864,8.48162 -0.74836,12.72203 0.37445,2.24538 0.74862,4.49039 1.12254,6.73519" />
  </g>
</svg>
